{"glyphs":{"0":{"ha":1013,"x_min":43,"x_max":969,"o":"m 503 972 q 694 935 608 974 q 842 830 781 897 q 936 672 903 763 q 969 478 969 582 q 952 341 969 406 q 906 223 935 276 q 837 127 876 169 q 753 57 797 85 q 642 7 708 29 q 500 -15 576 -15 q 326 20 408 -15 q 180 120 243 56 q 80 276 117 185 q 43 478 43 367 q 49 554 43 508 q 70 652 54 600 q 117 757 86 704 q 197 856 147 810 q 338 943 260 914 q 503 972 417 972 m 499 888 q 359 858 424 885 q 247 778 294 831 q 171 651 199 726 q 143 476 143 575 q 174 296 143 372 q 257 169 206 219 q 373 95 308 119 q 504 71 438 71 q 638 97 572 71 q 755 173 704 122 q 837 301 806 224 q 868 482 868 378 q 838 660 868 583 q 757 788 808 738 q 639 864 706 839 q 499 888 572 889 z "},"1":{"ha":1013,"x_min":229,"x_max":579,"o":"m 229 768 q 284 769 256 768 q 350 782 313 771 q 425 816 396 794 q 472 862 454 838 q 500 912 490 886 q 517 961 510 938 l 579 961 l 579 0 l 485 0 l 485 754 q 440 726 463 739 q 388 706 417 714 q 320 693 358 697 q 229 689 282 689 l 229 768 z "},"2":{"ha":1013,"x_min":101,"x_max":931,"o":"m 931 0 l 101 0 l 101 90 q 294 179 208 139 q 449 255 381 219 q 570 323 517 290 q 665 388 624 356 q 705 421 679 399 q 756 476 731 443 q 801 553 782 510 q 819 650 819 596 q 801 740 819 696 q 745 817 782 783 q 652 872 708 851 q 521 892 596 892 q 407 877 464 892 q 306 832 350 863 q 247 777 268 807 q 215 717 226 747 q 201 659 204 688 q 196 606 197 631 l 101 619 q 108 670 103 639 q 128 738 114 701 q 166 813 142 774 q 232 885 190 851 q 275 915 249 899 q 338 944 301 931 q 420 966 374 957 q 525 975 467 975 q 681 953 614 975 q 800 889 747 931 q 838 856 817 876 q 876 806 858 835 q 906 738 893 776 q 918 651 918 700 q 896 531 918 585 q 842 437 874 478 q 775 367 810 396 q 715 321 740 339 q 585 239 657 279 q 447 167 514 199 q 349 123 399 143 q 249 83 299 103 l 931 83 l 931 0 z "},"3":{"ha":1013,"x_min":79,"x_max":940,"o":"m 414 542 l 551 542 q 655 548 606 542 q 747 589 704 554 q 788 635 769 607 q 807 710 807 664 q 785 788 807 754 q 725 844 764 821 q 634 878 686 867 q 519 890 582 890 q 374 868 446 890 q 254 790 303 846 q 215 725 226 757 q 199 672 204 693 l 108 704 q 138 774 122 740 q 188 847 153 808 q 218 878 196 857 q 280 919 240 899 q 378 956 319 940 q 519 972 436 972 q 576 969 544 972 q 642 960 608 967 q 709 943 675 954 q 774 915 743 932 q 872 819 842 875 q 901 707 901 763 q 865 593 901 644 q 758 519 828 542 q 743 516 751 517 q 728 513 735 515 q 738 510 733 511 q 747 508 742 510 q 817 484 782 501 q 878 439 851 467 q 923 372 906 411 q 940 283 940 333 q 914 169 940 226 q 826 67 888 111 q 746 23 789 39 q 660 -2 703 7 q 581 -14 618 -11 q 517 -17 543 -17 q 366 1 442 -17 q 228 60 290 19 q 172 104 196 81 q 131 152 149 128 q 101 199 114 176 q 79 242 89 222 l 172 271 q 193 228 181 250 q 224 183 206 206 q 267 140 242 161 q 326 103 292 119 q 423 73 374 82 q 524 64 472 64 q 662 82 597 64 q 768 132 726 100 q 824 201 804 161 q 844 283 844 242 q 828 353 844 319 q 778 413 813 388 q 674 453 732 446 q 571 460 617 460 l 414 460 l 414 542 z "},"4":{"ha":1013,"x_min":47,"x_max":951,"o":"m 642 965 l 744 965 l 744 339 l 951 339 l 951 257 l 744 257 l 744 0 l 651 0 l 651 257 l 47 257 l 47 339 l 642 965 m 651 861 l 158 339 l 651 339 l 651 861 z "},"5":{"ha":1013,"x_min":64,"x_max":935,"o":"m 133 956 l 868 956 l 868 878 l 215 878 l 196 553 q 244 597 218 575 q 317 638 271 618 q 417 665 365 657 q 522 674 469 674 q 694 647 618 674 q 824 575 771 621 q 906 467 878 529 q 935 336 935 406 q 906 203 935 267 q 822 92 878 140 q 685 14 767 43 q 500 -15 604 -15 q 315 12 399 -15 q 178 82 232 39 q 122 138 154 101 q 64 240 89 175 l 158 267 q 177 219 165 246 q 214 164 189 192 q 276 115 240 135 q 350 85 313 96 q 424 69 388 74 q 489 65 461 65 q 627 85 563 65 q 739 141 692 106 q 813 226 786 176 q 840 336 840 276 q 816 440 840 393 q 747 521 792 488 q 642 573 703 554 q 507 592 581 592 q 376 573 431 592 q 283 529 321 554 q 222 478 244 504 q 189 438 200 451 l 103 438 l 133 956 z "},"6":{"ha":1013,"x_min":74,"x_max":961,"o":"m 850 721 q 815 765 838 738 q 753 819 792 793 q 660 865 715 846 q 529 885 606 885 q 479 882 508 885 q 417 869 450 879 q 348 839 383 858 q 279 786 313 819 q 212 688 232 739 q 182 599 192 636 q 167 517 169 547 q 163 457 164 488 q 204 522 178 493 q 264 571 231 550 q 331 603 294 590 q 405 623 368 615 q 476 633 442 631 q 536 636 510 636 q 683 619 614 636 q 804 572 753 601 q 917 469 874 533 q 961 322 961 404 q 930 190 961 251 q 841 83 899 129 q 704 11 783 38 q 529 -15 625 -15 q 436 -8 485 -15 q 340 17 388 0 q 247 65 292 35 q 168 139 203 94 q 99 273 124 194 q 74 443 74 351 q 75 490 74 467 q 79 536 76 513 q 106 660 86 594 q 167 788 125 725 q 248 876 203 840 q 342 932 293 911 q 442 962 392 953 q 538 971 492 971 q 693 948 622 971 q 814 892 764 925 q 884 831 856 864 q 938 761 913 797 l 850 721 m 519 551 q 408 537 464 550 q 306 497 351 524 q 231 426 260 469 q 201 319 201 382 q 228 213 201 263 q 301 129 256 163 q 399 86 342 101 q 524 71 457 71 q 676 92 611 71 q 783 149 740 114 q 846 228 825 183 q 867 317 867 272 q 849 399 867 361 q 806 463 831 436 q 742 508 778 490 q 667 535 706 525 q 590 548 628 544 q 519 551 551 551 z "},"7":{"ha":1013,"x_min":100,"x_max":936,"o":"m 364 0 q 365 44 364 19 q 372 99 367 68 q 385 169 376 131 q 410 256 394 207 q 499 470 447 374 q 606 644 551 567 q 711 778 660 721 q 799 872 763 835 l 100 872 l 100 956 l 936 956 l 936 886 q 804 765 872 840 q 674 596 736 690 q 563 393 613 501 q 489 171 514 285 q 474 75 476 113 q 469 0 471 38 l 364 0 z "},"8":{"ha":1013,"x_min":68,"x_max":943,"o":"m 690 501 q 708 499 699 500 q 726 494 717 497 q 812 462 772 483 q 881 410 851 440 q 926 344 910 381 q 943 264 943 307 q 935 208 943 239 q 908 144 928 176 q 853 82 888 113 q 768 29 819 51 q 641 -7 706 1 q 518 -15 576 -15 q 392 -8 451 -15 q 289 14 333 0 q 125 114 182 47 q 68 264 68 181 q 88 351 68 311 q 143 422 108 392 q 224 473 178 453 q 322 501 269 493 q 165 575 218 517 q 111 710 111 633 q 141 819 111 771 q 224 902 171 868 q 350 954 276 936 q 510 972 424 972 q 683 951 608 972 q 806 892 757 929 q 881 809 856 856 q 906 713 906 763 q 902 673 906 701 q 880 613 899 644 q 822 550 861 581 q 713 506 783 519 q 701 503 706 504 q 690 501 696 503 m 493 894 q 280 840 350 890 q 210 715 210 790 q 222 657 210 681 q 251 617 235 633 q 285 592 268 601 q 313 579 303 583 q 395 556 342 568 q 514 544 449 544 q 621 553 568 544 q 714 579 674 563 q 785 631 758 599 q 813 715 813 664 q 786 799 813 764 q 715 856 760 833 q 613 887 671 878 q 493 894 556 896 m 485 454 q 244 398 325 449 q 164 265 164 347 q 191 182 164 219 q 265 118 218 144 q 374 78 311 92 q 510 64 438 64 q 638 76 576 64 q 745 114 699 89 q 819 176 792 139 q 847 265 847 214 q 819 351 847 314 q 742 411 790 388 q 626 446 693 435 q 485 454 560 457 z "},"9":{"ha":1013,"x_min":61,"x_max":953,"o":"m 188 224 q 324 108 244 147 q 497 69 403 69 q 688 122 601 69 q 819 276 775 174 q 854 395 844 335 q 865 518 864 456 q 763 393 833 440 q 697 360 733 374 q 623 337 661 346 q 546 324 585 328 q 472 319 507 319 q 297 344 374 319 q 169 412 221 369 q 89 511 117 454 q 61 631 61 568 q 92 759 61 697 q 179 868 122 821 q 318 944 236 915 q 503 972 400 972 q 690 940 607 972 q 832 848 774 908 q 922 701 890 788 q 953 504 953 614 q 931 321 953 400 q 874 184 910 242 q 790 88 838 126 q 692 27 743 50 q 588 -5 640 4 q 490 -14 536 -14 q 340 8 407 -14 q 228 57 272 29 q 151 119 179 88 q 101 179 124 151 l 188 224 m 513 886 q 371 869 436 888 q 258 817 306 850 q 184 738 211 783 q 157 636 157 692 q 241 469 157 532 q 475 406 325 406 q 601 419 539 406 q 711 462 663 433 q 790 535 760 490 q 821 640 821 579 q 805 724 821 683 q 760 796 789 764 q 701 842 733 824 q 637 869 669 860 q 572 883 604 879 q 513 886 540 886 z "}," ":{"ha":521,"x_min":0,"x_max":0,"o":""},"$":{"ha":1128,"x_min":44,"x_max":1060,"o":"m 531 1093 l 614 1093 l 614 1006 q 724 992 665 1001 q 854 950 783 982 q 965 880 926 917 q 1032 813 1004 843 l 943 765 q 894 819 924 789 q 803 876 864 849 q 696 909 744 901 q 614 919 647 917 l 614 563 q 708 550 660 557 q 802 533 757 543 q 888 510 847 524 q 958 475 928 496 q 988 452 971 467 q 1022 415 1006 438 q 1049 361 1038 392 q 1060 292 1060 331 q 1033 178 1060 231 q 961 86 1007 126 q 872 29 919 50 q 779 -3 825 8 q 690 -18 733 -14 q 614 -24 647 -22 l 614 -117 l 531 -117 l 531 -24 q 460 -17 497 -21 q 385 -7 424 -14 q 306 12 346 0 q 228 44 267 24 q 158 91 186 67 q 108 142 129 115 q 72 194 88 168 q 44 246 57 221 l 147 285 q 210 179 171 221 q 299 113 249 138 q 407 76 349 88 q 531 63 465 65 l 531 478 q 406 495 458 488 q 315 512 354 503 q 248 533 276 521 q 194 565 219 546 q 139 635 158 594 q 119 721 119 675 q 127 779 119 749 q 153 840 135 810 q 200 897 171 869 q 272 946 229 924 q 410 991 340 981 q 531 1006 479 1001 l 531 1093 m 531 919 q 493 917 515 918 q 444 910 471 915 q 388 898 417 906 q 332 876 360 890 q 251 813 282 851 q 219 729 219 774 q 245 656 219 683 q 313 613 271 629 q 412 589 356 597 q 531 575 468 581 l 531 919 m 614 63 q 718 74 663 65 q 836 115 774 83 q 924 185 890 143 q 958 286 958 226 q 933 365 958 335 q 863 415 908 396 q 753 444 817 433 q 614 467 690 456 l 614 63 z "},"%":{"ha":1504,"x_min":42,"x_max":1458,"o":"m 1157 610 q 1277 590 1222 613 q 1372 524 1332 567 q 1435 424 1413 482 q 1458 299 1458 365 q 1437 181 1458 236 q 1377 83 1415 125 q 1285 16 1339 40 q 1165 -8 1231 -8 q 1053 15 1106 -8 q 961 78 1000 38 q 900 176 922 119 q 878 303 878 233 q 899 425 878 369 q 958 521 921 481 q 1047 584 996 561 q 1157 610 1099 607 m 989 956 l 1063 956 l 508 0 l 435 0 l 989 956 m 1158 547 q 1067 526 1107 546 q 1001 474 1028 507 q 960 397 974 442 q 946 301 946 353 q 967 185 946 232 q 1022 108 989 138 q 1092 66 1054 79 q 1165 53 1131 53 q 1247 67 1207 53 q 1317 113 1286 82 q 1367 189 1349 143 q 1386 296 1386 235 q 1369 403 1386 356 q 1323 483 1353 450 q 1251 532 1293 515 q 1158 547 1208 549 m 321 961 q 442 941 386 964 q 538 876 497 918 q 600 776 578 835 q 622 651 622 718 q 601 533 622 589 q 541 434 579 476 q 449 367 503 392 q 329 343 394 343 q 217 366 269 343 q 126 430 165 389 q 65 528 88 471 q 42 654 42 585 q 63 776 42 721 q 123 872 85 832 q 212 935 161 913 q 321 961 263 958 m 324 900 q 233 879 272 899 q 166 827 193 860 q 125 749 139 794 q 111 653 111 704 q 133 536 111 583 q 186 460 154 489 q 257 417 218 431 q 331 404 296 404 q 410 419 371 404 q 481 465 450 435 q 532 542 513 496 q 551 649 551 588 q 535 756 551 708 q 488 835 518 803 q 415 885 457 868 q 324 900 374 901 z "},"&":{"ha":1071,"x_min":53,"x_max":1049,"o":"m 1049 1 q 978 9 1010 3 q 915 29 946 15 q 851 65 885 43 q 774 121 817 88 q 726 76 750 97 q 661 35 701 56 q 553 -5 617 13 q 415 -22 490 -22 q 259 3 326 -22 q 146 67 192 28 q 76 157 100 107 q 53 258 53 207 q 82 372 53 325 q 156 451 111 418 q 256 506 201 483 q 358 546 310 528 q 322 590 340 567 q 288 640 303 614 q 264 694 274 665 q 254 756 254 724 q 266 823 254 786 q 306 891 278 860 q 383 943 335 922 q 503 964 431 964 q 602 946 560 964 q 673 898 644 928 q 715 831 701 868 q 729 754 729 793 q 706 658 729 697 q 649 590 683 618 q 576 543 615 561 q 501 511 536 525 q 594 410 554 451 q 665 337 633 368 q 722 282 696 306 q 774 235 747 258 q 815 303 799 271 q 844 369 832 336 q 865 440 857 403 q 879 521 872 476 l 969 521 q 943 396 957 447 q 913 307 929 344 q 877 241 896 269 q 838 183 858 213 q 902 137 875 154 q 952 108 929 119 q 998 92 975 97 q 1049 83 1021 88 l 1049 1 m 447 576 q 513 603 478 589 q 576 639 547 618 q 624 690 606 660 q 643 761 643 719 q 633 808 643 785 q 606 848 624 831 q 560 876 588 865 q 499 888 533 888 q 432 876 460 888 q 385 847 404 865 q 358 806 367 829 q 349 758 349 782 q 377 670 349 714 q 447 576 406 626 m 415 478 q 313 442 361 460 q 229 399 265 424 q 172 343 193 375 q 151 264 151 311 q 170 185 151 222 q 223 120 189 149 q 306 76 257 92 q 417 60 356 60 q 508 69 461 60 q 601 99 556 79 q 665 132 642 115 q 714 171 688 149 q 637 241 672 208 q 567 309 601 274 q 495 385 532 344 q 415 478 458 426 z "},"’":{"ha":376,"x_min":128,"x_max":246,"o":"m 246 806 q 243 767 246 789 q 230 726 240 746 q 197 692 219 707 q 136 676 175 678 l 136 726 q 171 740 158 729 q 188 765 183 750 q 193 799 193 781 q 193 836 193 817 l 128 836 l 128 981 l 246 981 l 246 806 z "},"(":{"ha":492,"x_min":107,"x_max":468,"o":"m 433 -303 q 306 -182 365 -251 q 203 -28 247 -112 q 133 155 158 56 q 107 367 107 254 q 125 547 107 465 q 172 697 143 629 q 238 816 201 764 q 310 908 274 868 q 379 975 347 947 q 433 1019 411 1003 l 468 983 q 427 941 447 963 q 388 896 407 919 q 321 797 353 853 q 264 672 289 740 q 224 523 239 603 q 210 356 210 443 q 229 165 210 260 q 290 -17 249 71 q 315 -64 299 -36 q 352 -125 331 -92 q 403 -194 374 -158 q 468 -262 432 -229 l 433 -303 z "},")":{"ha":492,"x_min":25,"x_max":386,"o":"m 60 1019 q 188 897 128 967 q 291 744 247 828 q 360 561 335 660 q 386 350 386 463 q 368 169 386 251 q 321 20 350 88 q 256 -99 292 -47 q 183 -191 219 -151 q 113 -258 146 -231 q 60 -301 81 -285 l 25 -267 q 66 -224 46 -244 q 106 -179 86 -203 q 171 -80 139 -136 q 228 45 203 -24 q 268 194 253 114 q 283 361 283 274 q 253 595 283 492 q 181 776 222 699 q 95 903 139 853 q 25 979 51 954 l 60 1019 z "},"*":{"ha":550,"x_min":69,"x_max":482,"o":"m 247 981 l 313 981 l 310 808 l 457 878 l 482 818 l 322 750 l 433 617 l 382 581 l 274 718 l 178 575 l 125 615 l 231 753 l 69 819 l 103 878 l 251 808 l 247 981 z "},"+":{"ha":926,"x_min":58,"x_max":868,"o":"m 506 0 l 422 0 l 422 363 l 58 363 l 58 446 l 422 446 l 422 807 l 506 807 l 506 446 l 868 446 l 868 363 l 506 363 l 506 0 z "},",":{"ha":376,"x_min":136,"x_max":239,"o":"m 136 138 l 239 138 l 239 -28 q 236 -65 239 -43 q 224 -106 233 -86 q 194 -140 214 -125 q 139 -160 174 -156 l 139 -111 q 169 -96 158 -108 q 183 -67 179 -83 q 188 -32 188 -50 q 188 0 188 -14 l 136 0 l 136 138 z "},"-":{"ha":521,"x_min":71,"x_max":454,"o":"m 454 524 l 454 438 l 71 438 l 71 524 l 454 524 z "},".":{"ha":376,"x_min":133,"x_max":240,"o":"m 133 138 l 240 138 l 240 0 l 133 0 l 133 138 z "},"/":{"ha":694,"x_min":24,"x_max":660,"o":"m 578 981 l 660 981 l 107 0 l 24 0 l 578 981 z "},":":{"ha":435,"x_min":192,"x_max":301,"o":"m 301 679 l 301 543 l 192 543 l 192 679 l 301 679 m 301 138 l 301 0 l 192 0 l 192 138 l 301 138 z "},";":{"ha":435,"x_min":192,"x_max":301,"o":"m 301 679 l 301 543 l 192 543 l 192 679 l 301 679 m 193 138 l 296 138 l 296 -28 q 293 -65 296 -43 q 281 -106 290 -86 q 251 -140 271 -125 q 196 -160 231 -156 l 196 -111 q 226 -96 215 -108 q 240 -67 236 -83 q 244 -32 244 -50 q 244 0 244 -14 l 193 0 l 193 138 z "},"<":{"ha":926,"x_min":0,"x_max":926,"o":"m 926 -4 l 0 443 l 0 540 l 926 985 l 926 896 l 93 492 l 926 85 l 926 -4 z "},"=":{"ha":926,"x_min":0,"x_max":926,"o":"m 926 240 l 0 240 l 0 321 l 926 321 l 926 240 m 926 485 l 0 485 l 0 567 l 926 567 l 926 485 z "},">":{"ha":926,"x_min":0,"x_max":926,"o":"m 0 -4 l 0 85 l 833 492 l 0 896 l 0 985 l 926 540 l 926 443 l 0 -4 z "},"?":{"ha":983,"x_min":111,"x_max":913,"o":"m 111 701 q 132 759 119 728 q 165 823 144 790 q 214 887 185 856 q 286 944 243 918 q 401 990 340 976 q 524 1003 461 1003 q 683 981 611 1003 q 805 919 754 960 q 884 822 856 879 q 913 694 913 765 q 888 569 913 624 q 824 481 863 515 q 746 432 789 450 q 658 400 703 414 q 581 376 608 385 q 541 355 554 367 q 525 325 528 343 q 521 274 522 307 l 435 274 q 440 349 436 319 q 458 399 444 379 q 500 434 472 419 q 576 463 528 449 q 624 477 600 469 q 672 493 649 485 q 713 511 688 499 q 762 545 738 524 q 803 601 786 567 q 821 689 821 636 q 792 800 821 756 q 720 872 764 844 q 624 910 676 899 q 524 921 571 921 q 425 909 476 921 q 321 863 374 897 q 272 820 292 842 q 237 775 251 799 q 212 726 222 751 q 192 671 201 700 l 111 701 m 528 138 l 528 0 l 424 0 l 424 138 l 528 138 z "},"@":{"ha":1244,"x_min":96,"x_max":1149,"o":"m 1135 47 q 902 -115 1029 -57 q 628 -172 775 -172 q 438 -144 533 -172 q 267 -56 343 -115 q 143 98 190 4 q 96 324 96 192 q 143 572 96 451 q 275 784 190 692 q 477 933 360 876 q 736 989 594 989 q 906 961 829 989 q 1036 881 982 933 q 1119 756 1090 829 q 1149 590 1149 682 q 1122 407 1149 496 q 1050 249 1094 318 q 949 140 1006 181 q 832 99 892 99 q 790 105 807 99 q 760 121 772 111 q 742 140 749 131 q 732 156 735 149 q 722 194 722 175 q 721 228 721 213 q 694 194 713 215 q 651 151 676 172 q 590 115 625 131 q 513 100 556 100 q 446 113 478 100 q 389 153 414 126 q 349 222 364 181 q 335 321 335 264 q 358 470 335 399 q 422 596 382 542 q 515 683 463 650 q 625 715 568 715 q 727 681 688 715 q 790 583 767 646 l 814 683 l 896 683 l 850 479 q 830 383 838 421 q 818 318 822 344 q 812 274 814 292 q 810 239 810 256 q 824 183 810 200 q 860 167 839 167 q 932 201 893 167 q 1005 293 971 235 q 1062 428 1039 351 q 1085 588 1085 504 q 1056 740 1085 675 q 979 846 1028 804 q 866 908 931 888 q 731 928 801 928 q 506 878 610 928 q 324 744 401 828 q 203 552 247 661 q 160 325 160 443 q 201 127 160 210 q 308 -8 242 44 q 457 -86 374 -61 q 626 -111 540 -111 q 825 -79 739 -111 q 974 -8 911 -47 q 1048 45 1021 21 q 1097 90 1075 69 l 1135 47 m 761 482 q 751 553 763 524 q 723 603 740 583 q 683 632 706 622 q 636 642 660 642 q 549 612 588 642 q 485 536 511 582 q 444 434 458 490 q 429 326 429 378 q 437 268 429 296 q 459 219 444 240 q 497 187 474 199 q 550 175 519 175 q 620 194 585 175 q 685 250 656 214 q 728 324 713 285 q 751 398 743 364 q 760 456 758 432 q 761 482 761 479 z "},"A":{"ha":1100,"x_min":10,"x_max":1092,"o":"m 597 981 l 1092 0 l 990 0 l 864 254 l 232 254 l 107 0 l 10 0 l 492 981 l 597 981 m 544 893 l 269 332 l 825 332 l 544 893 z "},"B":{"ha":1274,"x_min":114,"x_max":1192,"o":"m 114 981 l 822 981 q 881 980 851 981 q 941 973 911 979 q 999 954 971 967 q 1056 919 1028 942 q 1119 840 1096 888 q 1142 735 1142 792 q 1131 661 1142 699 q 1097 594 1119 624 q 1030 540 1067 554 q 971 518 993 525 q 1008 513 990 515 q 1050 500 1026 510 q 1153 410 1115 472 q 1192 268 1192 349 q 1170 153 1192 208 q 1101 60 1149 97 q 1044 27 1075 39 q 982 9 1013 15 q 924 1 951 3 q 878 0 896 0 l 114 0 l 114 981 m 210 554 l 808 554 q 853 556 829 554 q 900 562 876 557 q 947 577 924 567 q 992 607 971 588 q 1034 675 1026 640 q 1042 728 1042 710 q 1021 815 1042 778 q 969 872 1000 853 q 933 888 953 882 q 892 897 913 894 q 854 901 872 900 q 824 901 836 901 l 210 901 l 210 554 m 210 82 l 875 82 q 915 83 893 82 q 960 90 938 85 q 1006 108 983 96 q 1047 139 1028 119 q 1080 190 1065 158 q 1094 267 1094 222 q 1075 359 1094 325 q 1039 408 1056 393 q 985 444 1018 431 q 918 463 953 457 q 852 469 883 468 q 801 471 821 471 l 210 471 l 210 82 z "},"C":{"ha":1128,"x_min":57,"x_max":1121,"o":"m 1121 264 q 1093 219 1107 240 q 1056 169 1079 197 q 956 77 1010 114 q 845 17 903 40 q 728 -15 788 -6 q 608 -25 668 -25 q 357 23 461 -25 q 186 147 253 71 q 88 315 119 222 q 57 494 57 407 q 99 701 57 606 q 216 865 142 796 q 391 972 290 933 q 608 1011 492 1011 q 762 992 689 1011 q 897 940 835 974 q 970 891 939 917 q 1025 840 1001 865 q 1065 789 1049 814 q 1096 742 1082 764 l 1014 696 q 990 734 1001 717 q 958 776 979 751 q 803 889 896 854 q 614 924 711 924 q 432 891 515 924 q 288 801 349 858 q 194 663 228 743 q 161 488 161 583 q 192 324 161 401 q 281 189 222 247 q 423 96 339 131 q 614 61 507 61 q 790 90 717 61 q 913 158 863 118 q 992 238 963 197 q 1036 304 1021 279 l 1121 264 z "},"D":{"ha":1186,"x_min":115,"x_max":1119,"o":"m 115 981 l 606 981 q 735 974 672 981 q 867 933 799 967 q 983 850 935 900 q 1061 741 1031 800 q 1106 617 1092 682 q 1119 488 1119 551 q 1064 241 1119 344 q 921 79 1008 138 q 832 35 878 51 q 740 12 786 19 q 647 2 693 4 q 560 0 601 0 l 115 0 l 115 981 m 213 82 l 525 82 q 624 83 574 82 q 724 94 675 85 q 818 123 772 104 q 904 178 864 142 q 994 318 969 238 q 1019 482 1019 399 q 999 633 1019 561 q 933 763 978 706 q 849 840 894 813 q 758 881 803 868 q 674 897 714 894 q 607 899 633 899 l 213 899 l 213 82 z "},"E":{"ha":1157,"x_min":115,"x_max":1094,"o":"m 115 981 l 1054 981 l 1054 899 l 211 899 l 211 556 l 990 556 l 990 474 l 211 474 l 211 82 l 1094 82 l 1094 0 l 115 0 l 115 981 z "},"F":{"ha":1042,"x_min":115,"x_max":1018,"o":"m 115 982 l 1018 982 l 1018 900 l 211 900 l 211 551 l 933 551 l 933 468 l 211 468 l 211 0 l 115 0 l 115 982 z "},"G":{"ha":1244,"x_min":61,"x_max":1142,"o":"m 1057 201 q 1026 153 1047 183 q 965 89 1006 122 q 911 51 944 72 q 833 13 878 31 q 734 -16 789 -4 q 614 -28 679 -28 q 389 10 490 -28 q 215 117 288 49 q 101 280 142 186 q 61 486 61 374 q 100 692 61 596 q 212 858 139 788 q 388 969 285 929 q 618 1010 490 1010 q 815 983 718 1010 q 985 901 911 956 q 1068 822 1038 861 q 1118 751 1099 783 l 1026 699 q 994 751 1013 724 q 943 808 976 778 q 789 896 875 869 q 611 922 703 922 q 426 889 510 922 q 284 797 343 856 q 193 660 225 739 q 161 490 161 581 q 194 317 161 396 q 286 181 226 239 q 431 92 346 124 q 622 60 517 60 q 792 88 710 60 q 940 176 875 117 q 1002 247 979 211 q 1036 317 1025 283 q 1051 378 1047 350 q 1057 429 1056 407 l 535 429 l 535 513 l 1142 513 l 1142 0 l 1057 0 l 1057 201 z "},"H":{"ha":1244,"x_min":117,"x_max":1131,"o":"m 211 981 l 211 561 l 1036 561 l 1036 981 l 1131 981 l 1131 0 l 1036 0 l 1036 479 l 211 479 l 211 0 l 117 0 l 117 981 l 211 981 z "},"I":{"ha":318,"x_min":114,"x_max":207,"o":"m 114 981 l 207 981 l 207 0 l 114 0 l 114 981 z "},"J":{"ha":868,"x_min":10,"x_max":775,"o":"m 775 981 l 775 390 q 774 331 775 363 q 767 265 772 299 q 753 200 763 232 q 731 140 744 168 q 671 65 707 96 q 591 13 635 33 q 499 -16 547 -7 q 403 -25 450 -25 q 250 -3 324 -25 q 118 69 176 18 q 74 117 93 92 q 43 165 56 142 q 22 209 31 189 q 10 240 14 229 l 106 276 q 117 237 111 257 q 139 193 124 217 q 202 123 165 149 q 277 83 239 97 q 351 66 315 69 q 410 63 386 63 q 513 76 468 63 q 592 114 557 89 q 649 186 633 146 q 671 263 664 226 q 681 361 679 308 q 683 479 683 414 l 683 981 l 775 981 z "},"K":{"ha":1100,"x_min":115,"x_max":1094,"o":"m 940 981 l 1071 981 l 607 603 l 1094 0 l 971 0 l 533 543 l 208 279 l 208 0 l 115 0 l 115 981 l 208 981 l 208 385 l 940 981 z "},"L":{"ha":956,"x_min":117,"x_max":926,"o":"m 213 981 l 213 82 l 926 82 l 926 0 l 117 0 l 117 981 l 213 981 z "},"M":{"ha":1303,"x_min":115,"x_max":1190,"o":"m 239 981 l 613 186 q 626 155 621 168 q 637 131 632 142 q 646 108 642 119 q 656 82 650 97 l 1068 981 l 1190 981 l 1190 0 l 1103 0 l 1103 872 q 1090 840 1094 851 q 1074 806 1085 829 l 703 0 l 606 0 l 232 800 q 223 820 226 813 q 216 835 219 828 q 210 851 213 842 q 203 872 207 860 l 203 0 l 115 0 l 115 981 l 239 981 z "},"N":{"ha":1244,"x_min":115,"x_max":1131,"o":"m 1131 981 l 1131 0 l 1043 0 l 203 856 l 203 0 l 115 0 l 115 981 l 203 981 l 1043 121 l 1043 981 l 1131 981 z "},"O":{"ha":1274,"x_min":58,"x_max":1217,"o":"m 640 1011 q 894 964 786 1010 q 1074 845 1003 918 q 1181 680 1146 772 q 1217 493 1217 588 q 1176 292 1217 386 q 1058 126 1135 197 q 874 15 982 56 q 631 -26 765 -26 q 396 13 501 -26 q 215 121 290 51 q 99 285 140 190 q 58 492 58 381 q 99 694 58 600 q 216 860 140 789 q 399 971 292 931 q 640 1011 507 1011 m 610 926 q 407 881 492 921 q 267 778 322 840 q 187 640 213 717 q 161 488 161 564 q 198 306 161 386 q 299 171 235 226 q 451 86 364 115 q 639 57 538 57 q 822 86 736 57 q 972 172 908 115 q 1073 310 1036 228 q 1110 499 1110 392 q 1100 593 1110 544 q 1069 687 1090 642 q 1016 772 1049 732 q 938 843 983 813 q 890 869 921 854 q 817 899 860 885 q 723 921 775 913 q 610 926 671 929 z "},"P":{"ha":1128,"x_min":115,"x_max":1103,"o":"m 115 981 l 760 981 q 829 979 793 981 q 901 969 865 978 q 969 944 936 961 q 1032 897 1003 928 q 1085 813 1068 861 q 1103 713 1103 764 q 1069 577 1103 636 q 976 485 1035 518 q 856 445 918 451 q 743 439 793 439 l 211 439 l 211 0 l 115 0 l 115 981 m 211 519 l 710 519 q 816 524 761 519 q 915 554 871 528 q 960 591 943 571 q 986 632 976 611 q 999 674 996 653 q 1001 711 1001 694 q 998 751 1001 731 q 988 792 994 772 q 908 876 963 853 q 769 899 854 899 l 211 899 l 211 519 z "},"Q":{"ha":1274,"x_min":56,"x_max":1235,"o":"m 964 58 q 907 29 938 44 q 838 1 876 14 q 751 -19 800 -11 q 642 -28 703 -28 q 380 17 490 -28 q 197 134 269 61 q 90 301 125 207 q 56 492 56 394 q 97 696 56 601 q 215 859 139 790 q 398 967 292 928 q 632 1007 504 1007 q 884 963 775 1007 q 1067 847 993 919 q 1177 681 1140 774 q 1214 488 1214 588 q 1194 343 1214 406 q 1146 235 1174 281 q 1089 159 1118 189 q 1042 113 1060 129 l 1235 7 l 1193 -68 l 964 58 m 621 922 q 421 883 507 919 q 276 785 335 846 q 189 649 218 725 q 160 492 160 572 q 199 299 160 381 q 305 163 239 217 q 457 82 371 108 q 636 56 543 56 q 838 90 750 56 q 987 185 926 125 q 1078 324 1047 244 q 1108 493 1108 404 q 1062 693 1108 603 q 932 840 1015 783 q 779 904 864 885 q 621 922 694 924 z "},"R":{"ha":1215,"x_min":115,"x_max":1178,"o":"m 793 981 q 900 976 843 981 q 1008 943 957 971 q 1099 849 1065 911 q 1132 713 1132 788 q 1112 603 1132 660 q 1038 504 1092 547 q 977 469 1010 482 q 910 450 944 457 q 844 441 876 443 q 783 438 811 439 l 1178 0 l 1046 0 l 658 438 l 210 438 l 210 0 l 115 0 l 115 981 l 793 981 m 210 521 l 736 521 q 875 530 811 521 q 982 585 939 539 q 1018 648 1007 613 q 1029 717 1029 683 q 1010 803 1029 765 q 963 861 990 840 q 881 895 925 890 q 796 900 836 900 l 210 900 l 210 521 z "},"S":{"ha":1128,"x_min":44,"x_max":1061,"o":"m 147 285 q 178 224 160 256 q 226 165 196 193 q 301 113 256 136 q 413 76 346 90 q 494 65 453 68 q 575 61 535 61 q 732 77 661 61 q 853 123 803 93 q 932 194 904 153 q 960 286 960 236 q 937 364 960 333 q 872 414 914 394 q 767 444 829 433 q 625 467 704 456 q 533 478 579 472 q 443 490 488 483 q 332 509 381 500 q 243 538 283 518 q 153 612 185 565 q 121 722 121 658 q 148 829 121 778 q 231 920 175 881 q 372 983 286 960 q 572 1007 457 1007 q 830 963 714 1007 q 1033 814 946 918 l 944 765 q 909 807 933 781 q 841 859 885 833 q 730 903 797 885 q 565 922 663 922 q 424 908 488 922 q 315 867 360 893 q 245 806 269 842 q 221 726 221 769 q 234 673 221 694 q 268 637 247 651 q 313 613 289 622 q 361 600 338 604 q 399 594 372 597 q 458 585 425 590 q 526 575 490 581 q 597 565 563 569 q 657 557 631 561 q 697 551 683 553 q 820 529 764 540 q 917 500 876 518 q 1021 419 981 472 q 1061 292 1061 367 q 1049 215 1061 251 q 1018 150 1038 179 q 968 92 1000 122 q 885 35 936 61 q 759 -8 833 10 q 583 -25 685 -25 q 467 -20 518 -25 q 374 -7 415 -15 q 301 13 333 1 q 239 40 268 25 q 162 89 193 64 q 109 140 131 114 q 73 192 88 165 q 44 246 58 218 l 147 285 z "},"T":{"ha":956,"x_min":-1,"x_max":953,"o":"m -1 981 l 953 981 l 953 899 l 532 899 l 532 0 l 439 0 l 439 899 l -1 899 l -1 981 z "},"U":{"ha":1215,"x_min":110,"x_max":1103,"o":"m 110 982 l 200 982 l 200 397 q 225 240 197 303 q 306 137 253 176 q 435 81 358 97 q 607 64 511 64 q 797 85 719 64 q 923 148 875 106 q 992 256 971 190 q 1014 414 1014 322 l 1014 982 l 1103 982 l 1103 400 q 980 76 1103 176 q 607 -25 857 -25 q 232 75 354 -25 q 110 389 110 175 l 110 982 z "},"V":{"ha":983,"x_min":0,"x_max":1008,"o":"m 904 981 l 1008 981 l 554 0 l 463 0 l 0 981 l 106 981 l 511 103 l 904 981 z "},"W":{"ha":1475,"x_min":4,"x_max":1471,"o":"m 104 982 l 354 210 q 369 162 361 190 q 389 97 378 133 q 415 182 404 149 q 435 243 425 215 q 454 299 444 271 q 478 367 464 326 l 692 982 l 793 982 l 1061 224 q 1081 165 1072 190 q 1101 97 1089 140 q 1114 142 1108 124 q 1124 178 1119 161 q 1135 216 1129 196 q 1151 265 1142 236 l 1378 982 l 1471 982 l 1160 0 l 1046 0 l 772 788 q 762 815 765 804 q 755 837 758 826 q 749 858 751 847 q 743 885 747 868 q 733 856 738 867 q 726 835 729 844 q 719 813 724 825 q 710 783 715 801 l 440 0 l 329 0 l 4 982 l 104 982 z "},"X":{"ha":1013,"x_min":-6,"x_max":1028,"o":"m 857 981 l 974 981 l 558 503 l 1028 0 l 906 0 l 500 438 l 122 0 l 6 0 l 440 503 l -6 981 l 115 981 l 500 569 l 857 981 z "},"Y":{"ha":1013,"x_min":8,"x_max":1004,"o":"m 894 981 l 1004 981 l 560 397 l 560 0 l 471 0 l 471 397 l 8 981 l 125 981 l 515 476 l 894 981 z "},"Z":{"ha":1042,"x_min":0,"x_max":1042,"o":"m 1042 981 l 1042 894 l 135 82 l 1017 82 l 1017 0 l 0 0 l 0 79 l 915 899 l 76 899 l 76 981 l 1042 981 z "},"[":{"ha":406,"x_min":114,"x_max":374,"o":"m 114 1015 l 374 1015 l 374 929 l 204 929 l 204 -212 l 374 -212 l 374 -300 l 114 -300 l 114 1015 z "},"\\":{"ha":694,"x_min":24,"x_max":660,"o":"m 578 0 l 24 981 l 107 981 l 660 0 l 578 0 z "},"]":{"ha":406,"x_min":32,"x_max":292,"o":"m 32 1015 l 292 1015 l 292 -300 l 32 -300 l 32 -212 l 201 -212 l 201 929 l 32 929 l 32 1015 z "},"^":{"ha":1013,"x_min":217,"x_max":796,"o":"m 796 486 l 690 486 l 508 865 l 322 486 l 217 486 l 467 981 l 554 981 l 796 486 z "},"_":{"ha":694,"x_min":-14,"x_max":708,"o":"m 708 -174 l -14 -174 l -14 -104 l 708 -104 l 708 -174 z "},"‘":{"ha":376,"x_min":132,"x_max":249,"o":"m 132 858 q 135 897 132 875 q 148 938 138 918 q 180 972 158 958 q 242 989 201 986 l 242 938 q 206 924 218 935 q 189 899 194 914 q 183 865 183 883 q 183 828 183 846 l 249 828 l 249 682 l 132 682 l 132 858 z "},"a":{"ha":926,"x_min":57,"x_max":926,"o":"m 926 1 q 885 -3 906 -1 q 843 -4 865 -4 q 761 21 785 -4 q 729 101 738 46 q 678 66 708 86 q 603 27 647 46 q 501 -4 560 8 q 364 -17 442 -17 q 224 -1 269 -17 q 164 22 179 14 q 87 97 117 50 q 57 206 57 143 q 81 306 57 263 q 140 374 106 349 q 236 415 178 400 q 370 438 294 431 q 537 447 446 444 q 728 450 628 449 q 723 511 728 481 q 692 567 718 542 q 608 607 665 592 q 444 622 550 622 q 312 612 363 622 q 231 583 261 601 q 186 538 201 564 q 161 482 171 513 l 65 486 q 78 528 69 506 q 101 575 86 551 q 167 642 129 617 q 250 682 206 668 q 343 701 294 696 q 440 706 392 706 q 510 703 474 706 q 585 695 547 701 q 658 679 622 689 q 721 653 693 669 q 772 608 754 633 q 799 555 790 582 q 810 503 808 528 q 813 465 813 479 l 813 172 q 817 124 813 144 q 833 92 821 104 q 867 74 844 79 q 926 71 889 68 l 926 1 m 729 372 q 572 371 651 372 q 424 363 493 369 q 299 344 354 357 q 214 308 244 331 q 169 259 182 286 q 156 204 156 232 q 181 129 156 157 q 242 88 207 101 q 315 69 278 74 q 375 65 351 65 q 474 74 426 65 q 563 98 522 83 q 635 133 604 113 q 685 174 665 153 q 724 260 717 211 q 729 372 731 308 z "},"b":{"ha":983,"x_min":100,"x_max":917,"o":"m 100 981 l 192 981 l 192 575 q 334 676 247 647 q 513 704 421 704 q 683 676 608 704 q 810 600 758 649 q 890 485 863 551 q 917 343 917 419 q 883 189 917 256 q 793 77 850 122 q 661 8 736 32 q 504 -15 586 -15 q 403 -6 451 -15 q 314 21 354 4 q 242 60 274 38 q 192 107 210 82 l 192 0 l 100 0 l 100 981 m 478 618 q 348 592 407 615 q 253 532 289 569 q 203 444 217 494 q 190 340 190 393 q 214 215 190 267 q 279 129 238 163 q 378 81 321 96 q 501 65 435 65 q 618 82 561 65 q 719 133 675 99 q 789 219 763 167 q 815 343 815 272 q 791 458 815 406 q 722 546 767 510 q 615 601 676 582 q 478 618 553 621 z "},"c":{"ha":926,"x_min":56,"x_max":899,"o":"m 899 233 q 851 160 881 203 q 772 78 821 117 q 649 12 722 39 q 468 -15 575 -15 q 310 8 385 -15 q 178 78 235 32 q 89 191 122 124 q 56 347 56 258 q 94 512 56 443 q 194 626 133 581 q 332 692 256 671 q 483 714 408 714 q 615 697 546 714 q 747 642 685 681 q 839 563 808 603 q 886 496 869 524 l 794 457 q 758 510 781 479 q 699 568 735 540 q 609 615 663 596 q 482 635 556 635 q 338 610 399 635 q 237 544 276 585 q 178 453 197 504 q 158 349 158 401 q 183 231 158 283 q 249 143 207 179 q 350 87 292 107 q 478 67 408 67 q 613 88 549 67 q 719 146 676 110 q 777 212 757 178 q 808 269 797 246 l 899 233 z "},"d":{"ha":983,"x_min":61,"x_max":882,"o":"m 790 981 l 882 981 l 882 0 l 790 0 l 790 106 q 747 63 768 82 q 685 24 725 43 q 583 -9 636 0 q 478 -18 531 -18 q 324 5 399 -18 q 190 73 249 28 q 97 186 132 118 q 61 346 61 254 q 98 503 61 436 q 194 616 135 571 q 328 684 253 661 q 482 707 404 707 q 581 697 533 707 q 669 671 628 688 q 741 630 710 654 q 790 576 772 606 l 790 981 m 492 60 q 647 91 583 60 q 743 167 711 122 q 781 253 771 206 q 790 350 790 301 q 779 442 790 404 q 753 504 768 479 q 724 542 739 529 q 700 563 708 556 q 648 593 676 579 q 588 615 619 607 q 526 627 557 624 q 469 629 496 631 q 366 611 419 626 q 268 562 313 596 q 194 474 224 528 q 164 344 165 421 q 185 235 164 286 q 247 144 206 183 q 349 83 288 106 q 492 60 410 60 z "},"e":{"ha":926,"x_min":65,"x_max":871,"o":"m 871 189 q 817 122 851 161 q 725 47 783 82 q 601 -2 667 13 q 478 -17 535 -17 q 313 12 389 -17 q 183 90 238 40 q 97 209 128 140 q 65 360 65 278 q 93 499 65 439 q 158 597 121 558 q 283 676 206 644 q 456 708 361 708 q 521 704 483 708 q 599 687 558 700 q 683 651 640 674 q 763 590 725 628 q 818 520 797 556 q 850 451 839 485 q 865 388 861 418 q 871 335 868 358 l 161 335 q 194 215 165 267 q 268 130 224 164 q 369 79 313 96 q 486 63 426 63 q 522 64 504 63 q 554 68 539 65 q 626 88 594 75 q 681 116 657 101 q 720 144 704 131 q 746 169 736 158 q 777 208 767 192 q 797 240 788 224 l 871 189 m 760 411 q 749 449 756 428 q 729 491 742 469 q 696 535 717 513 q 644 578 675 557 q 568 615 614 597 q 451 632 522 632 q 398 628 426 632 q 340 615 369 625 q 282 587 311 606 q 226 539 253 568 q 178 463 190 499 q 164 411 167 428 l 760 411 z "},"f":{"ha":492,"x_min":14,"x_max":474,"o":"m 150 821 q 152 867 150 844 q 164 914 154 890 q 203 967 179 949 q 254 994 228 986 q 304 1004 281 1003 q 342 1006 328 1006 q 420 1001 390 1006 q 474 990 450 996 l 474 911 q 422 922 446 918 q 356 925 399 925 q 294 914 317 925 q 260 885 271 903 q 245 845 249 868 q 242 800 242 822 l 242 688 l 474 688 l 474 615 l 242 615 l 242 0 l 150 0 l 150 615 l 14 615 l 14 688 l 150 688 l 150 821 z "},"g":{"ha":956,"x_min":56,"x_max":857,"o":"m 200 -50 q 204 -78 201 -62 q 215 -108 207 -93 q 239 -137 224 -122 q 281 -164 254 -151 q 366 -187 315 -179 q 463 -196 417 -196 q 497 -195 468 -196 q 565 -189 526 -194 q 643 -171 603 -183 q 710 -136 683 -158 q 744 -91 732 -117 q 763 -35 757 -65 q 769 31 768 -4 q 769 108 769 67 q 731 67 751 86 q 671 28 711 47 q 562 -8 618 3 q 449 -19 506 -19 q 298 3 369 -19 q 172 72 226 26 q 87 187 118 118 q 56 347 56 256 q 87 497 56 431 q 173 610 118 564 q 303 683 228 657 q 467 708 379 708 q 527 705 490 708 q 606 689 564 701 q 691 652 649 676 q 769 586 733 628 l 769 686 l 857 686 l 857 71 q 855 -7 857 33 q 841 -86 853 -47 q 803 -160 829 -125 q 731 -222 778 -196 q 660 -252 699 -242 q 584 -269 621 -262 q 517 -276 547 -275 q 469 -278 486 -278 q 383 -273 433 -278 q 286 -256 332 -268 q 232 -236 261 -249 q 176 -201 203 -224 q 130 -141 150 -178 q 104 -50 110 -104 l 200 -50 m 458 631 q 339 608 394 628 q 242 552 283 589 q 178 464 201 515 q 154 347 154 413 q 176 233 154 285 q 239 142 199 181 q 336 83 279 104 q 464 63 393 63 q 614 90 550 63 q 711 156 678 118 q 758 245 744 196 q 771 347 771 294 q 763 433 771 382 q 724 528 754 485 q 618 603 690 574 q 458 631 546 633 z "},"h":{"ha":983,"x_min":97,"x_max":881,"o":"m 188 982 l 188 575 q 246 634 210 610 q 326 674 282 658 q 418 697 369 690 q 514 704 467 704 q 597 699 554 704 q 678 681 639 693 q 753 651 718 669 q 813 604 788 632 q 851 543 838 576 q 872 478 865 510 q 879 418 878 446 q 881 375 881 390 l 881 0 l 790 0 l 790 361 q 788 406 789 379 q 781 460 788 432 q 758 518 774 489 q 709 570 742 547 q 625 607 676 593 q 496 621 574 621 q 351 597 422 621 q 236 521 279 574 q 206 476 215 497 q 192 438 196 456 q 189 404 189 419 q 188 379 189 389 l 188 0 l 97 0 l 97 982 l 188 982 z "},"i":{"ha":289,"x_min":99,"x_max":190,"o":"m 99 940 l 190 940 l 190 808 l 99 808 l 99 940 m 99 688 l 189 688 l 189 0 l 99 0 l 99 688 z "},"j":{"ha":289,"x_min":-122,"x_max":189,"o":"m 189 940 l 189 806 l 100 806 l 100 940 l 189 940 m 189 686 l 189 -75 q 185 -133 189 -100 q 165 -194 182 -165 q 110 -244 147 -224 q 7 -264 74 -264 q -32 -262 -10 -264 q -74 -256 -54 -260 q -108 -250 -94 -253 q -122 -246 -122 -247 l -122 -164 q -112 -167 -122 -164 q -85 -174 -101 -171 q -50 -179 -69 -176 q -11 -182 -31 -182 q 58 -168 36 -182 q 90 -135 81 -154 q 99 -100 99 -117 q 100 -76 99 -83 l 100 686 l 189 686 z "},"k":{"ha":926,"x_min":100,"x_max":932,"o":"m 100 981 l 192 981 l 192 296 l 704 686 l 843 686 l 496 421 l 932 0 l 797 0 l 421 364 l 192 188 l 192 0 l 100 0 l 100 981 z "},"l":{"ha":289,"x_min":99,"x_max":192,"o":"m 99 981 l 192 981 l 192 0 l 99 0 l 99 981 z "},"m":{"ha":1621,"x_min":99,"x_max":1518,"o":"m 190 0 l 99 0 l 99 686 l 190 686 l 190 597 q 228 629 206 611 q 287 664 251 647 q 372 692 322 681 q 490 704 422 704 q 570 699 531 704 q 649 679 610 693 q 715 651 688 667 q 760 620 742 636 q 791 590 779 604 q 811 564 803 575 q 878 628 840 601 q 961 671 917 654 q 1053 694 1006 688 q 1147 701 1101 701 q 1322 674 1238 701 q 1463 578 1406 647 q 1492 532 1481 554 q 1508 489 1503 510 q 1515 447 1514 468 q 1518 406 1517 426 l 1518 0 l 1426 0 l 1426 382 q 1424 427 1426 403 q 1413 476 1422 451 q 1386 523 1404 500 q 1335 567 1368 546 q 1242 605 1292 594 q 1140 615 1192 615 q 1086 612 1117 615 q 1023 600 1056 608 q 960 577 990 592 q 906 540 929 563 q 861 469 868 504 q 854 408 854 435 l 854 0 l 763 0 l 763 378 q 758 433 761 403 q 743 492 756 463 q 705 547 731 521 q 633 592 679 574 q 560 612 597 607 q 483 617 522 617 q 351 599 400 617 q 282 568 301 581 q 231 527 249 549 q 203 484 213 506 q 192 441 194 463 q 190 400 190 419 l 190 0 z "},"n":{"ha":983,"x_min":99,"x_max":886,"o":"m 886 0 l 794 0 l 794 374 q 789 451 794 408 q 755 531 783 494 q 667 593 726 568 q 501 618 608 618 q 360 599 431 618 q 240 529 289 579 q 200 464 208 496 q 192 385 192 432 l 192 0 l 99 0 l 99 686 l 192 686 l 192 590 q 228 624 206 604 q 289 661 251 643 q 381 692 326 679 q 513 706 435 706 q 647 691 583 706 q 754 651 710 676 q 828 591 801 625 q 868 520 856 557 q 883 447 881 483 q 886 379 886 411 l 886 0 z "},"o":{"ha":983,"x_min":60,"x_max":922,"o":"m 508 708 q 695 674 617 707 q 824 588 774 640 q 899 469 875 535 q 922 338 922 403 q 890 194 922 260 q 801 82 858 129 q 665 8 744 35 q 489 -19 585 -19 q 303 10 383 -19 q 169 90 224 40 q 88 206 115 140 q 60 342 60 271 q 91 490 60 422 q 181 607 122 558 q 322 683 239 656 q 508 708 406 710 m 485 633 q 360 612 418 632 q 258 555 301 592 q 189 464 214 518 q 164 342 164 410 q 190 218 164 271 q 259 130 215 165 q 362 76 303 94 q 488 58 421 58 q 622 78 561 58 q 727 135 683 99 q 795 225 771 172 q 819 343 819 278 q 792 470 819 415 q 717 562 764 525 q 610 617 671 599 q 485 633 550 635 z "},"p":{"ha":983,"x_min":103,"x_max":917,"o":"m 192 578 q 341 677 253 649 q 524 706 429 706 q 696 675 622 706 q 819 594 769 644 q 892 478 868 543 q 917 344 917 413 q 882 190 917 257 q 790 76 847 122 q 659 7 733 31 q 504 -17 585 -17 q 397 -8 444 -17 q 312 18 350 1 q 244 57 274 35 q 192 106 214 79 l 192 -261 l 103 -261 l 103 686 l 192 686 l 192 578 m 501 624 q 367 602 425 624 q 274 549 310 581 q 230 495 246 524 q 206 439 214 467 q 195 385 197 411 q 193 340 193 360 q 194 303 193 324 q 201 258 196 282 q 218 210 207 235 q 249 164 229 186 q 351 94 285 121 q 499 68 418 68 q 618 85 561 68 q 719 138 675 103 q 788 224 763 172 q 814 346 814 276 q 794 451 814 400 q 737 540 775 501 q 640 601 699 578 q 501 624 581 624 z "},"q":{"ha":983,"x_min":63,"x_max":881,"o":"m 881 686 l 881 -251 l 790 -251 l 790 93 q 747 57 772 76 q 685 21 722 38 q 599 -8 649 4 q 482 -19 550 -19 q 323 4 399 -19 q 189 74 247 28 q 97 189 131 121 q 63 346 63 257 q 94 503 63 435 q 181 617 126 571 q 310 686 236 663 q 467 710 383 710 q 597 696 542 710 q 690 663 651 682 q 753 624 729 644 q 790 592 776 604 l 790 686 l 881 686 m 468 628 q 317 598 376 626 q 225 528 258 569 q 178 439 192 486 q 165 354 165 392 q 195 220 165 275 q 272 131 225 165 q 376 80 318 96 q 488 64 433 64 q 642 94 575 64 q 742 169 708 125 q 781 251 771 206 q 792 344 792 297 q 782 433 792 385 q 744 518 772 481 q 631 601 704 574 q 468 628 557 629 z "},"r":{"ha":550,"x_min":99,"x_max":532,"o":"m 189 575 q 206 599 196 586 q 236 628 217 611 q 313 675 274 658 q 392 699 353 692 q 467 706 431 706 q 532 707 503 707 l 532 611 q 496 615 511 614 q 461 617 481 617 q 383 608 426 617 q 297 576 340 600 q 252 542 274 563 q 217 494 231 521 q 194 432 200 461 q 189 372 189 403 l 189 0 l 99 0 l 99 686 l 189 686 l 189 575 z "},"s":{"ha":868,"x_min":42,"x_max":817,"o":"m 140 192 q 167 150 150 174 q 228 106 183 126 q 333 74 271 83 q 449 65 396 65 q 597 83 528 65 q 699 139 667 101 q 717 168 710 151 q 724 203 724 185 q 719 231 724 214 q 697 263 714 247 q 642 289 676 282 q 544 300 607 296 q 466 305 504 303 q 388 310 428 307 q 269 316 319 313 q 181 335 219 319 q 142 356 161 343 q 107 387 122 368 q 81 431 92 406 q 71 490 71 457 q 76 534 71 510 q 93 582 81 558 q 126 624 107 607 q 163 653 144 642 q 198 671 182 664 q 225 681 214 678 q 329 701 275 696 q 422 706 383 706 q 492 703 456 706 q 565 695 529 701 q 635 679 601 689 q 697 656 669 669 q 768 597 746 628 q 801 544 790 565 l 700 524 q 685 549 694 535 q 654 576 676 563 q 599 601 631 592 q 535 616 568 611 q 472 623 503 621 q 418 625 440 625 q 376 624 401 625 q 323 618 351 622 q 267 606 294 614 q 218 583 239 597 q 188 558 199 571 q 173 533 178 544 q 167 512 168 521 q 167 500 167 503 q 188 444 167 468 q 240 417 207 424 q 340 407 272 411 q 443 402 392 404 q 546 396 494 400 q 642 383 608 390 q 696 369 675 376 q 789 299 761 346 q 817 206 817 253 q 810 156 817 179 q 792 113 803 132 q 766 78 781 93 q 733 50 751 63 q 608 -2 681 13 q 456 -17 536 -17 q 329 -10 394 -17 q 206 17 264 -3 q 104 73 149 36 q 42 168 60 110 l 140 192 z "},"t":{"ha":435,"x_min":13,"x_max":429,"o":"m 235 964 l 235 686 l 429 686 l 429 614 l 235 614 l 235 288 q 237 197 235 238 q 251 126 239 156 q 291 80 264 96 q 368 64 318 64 q 429 68 397 64 l 429 -6 q 384 -12 406 -10 q 338 -15 363 -15 q 242 1 283 -15 q 176 54 200 17 q 148 144 153 92 q 143 271 143 197 l 143 614 l 13 614 l 13 686 l 143 686 l 143 919 l 235 964 z "},"u":{"ha":983,"x_min":97,"x_max":885,"o":"m 794 688 l 885 688 l 885 0 l 794 0 l 794 100 q 753 66 779 86 q 687 27 728 46 q 589 -5 646 8 q 456 -18 532 -18 q 383 -14 433 -18 q 272 10 332 -10 q 161 80 197 35 q 112 173 125 125 q 99 262 99 221 q 97 318 99 303 l 97 688 l 189 688 l 189 311 q 190 272 189 293 q 194 227 190 250 q 208 182 199 204 q 233 140 217 160 q 308 90 256 114 q 457 67 361 67 q 522 70 486 67 q 594 82 557 74 q 665 104 631 90 q 728 139 700 118 q 765 174 753 157 q 784 207 778 190 q 792 241 790 224 q 794 278 793 258 l 794 688 z "},"v":{"ha":781,"x_min":3,"x_max":782,"o":"m 678 686 l 782 686 l 435 0 l 350 0 l 3 686 l 107 686 l 393 101 l 678 686 z "},"w":{"ha":1186,"x_min":0,"x_max":1185,"o":"m 642 686 l 864 113 l 1090 686 l 1185 686 l 907 0 l 819 0 l 593 581 l 371 0 l 283 0 l 0 686 l 99 686 l 326 113 l 546 686 l 642 686 z "},"x":{"ha":781,"x_min":-6,"x_max":786,"o":"m 642 686 l 760 686 l 446 357 l 786 0 l 665 0 l 389 293 l 115 0 l -6 0 l 333 357 l 15 686 l 139 686 l 389 419 l 642 686 z "},"y":{"ha":781,"x_min":0,"x_max":778,"o":"m 679 688 l 778 688 l 454 -51 q 410 -147 431 -106 q 359 -215 390 -187 q 281 -256 328 -242 q 157 -269 233 -269 q 82 -265 113 -269 q 15 -253 51 -260 l 15 -167 q 47 -177 32 -172 q 76 -185 61 -182 q 110 -190 92 -187 q 153 -192 129 -192 q 247 -178 210 -192 q 306 -144 283 -165 q 343 -94 329 -122 q 368 -37 357 -67 l 0 688 l 111 688 l 417 64 l 679 688 z "},"z":{"ha":781,"x_min":15,"x_max":758,"o":"m 758 0 l 15 0 l 15 74 l 626 610 l 60 610 l 60 686 l 758 686 l 758 621 l 143 76 l 758 76 l 758 0 z "},"{":{"ha":492,"x_min":111,"x_max":438,"o":"m 111 376 q 165 404 146 386 q 192 448 183 422 q 203 507 201 474 q 206 581 206 540 l 206 731 q 207 800 206 768 q 213 860 208 832 q 228 913 218 889 q 258 960 239 938 q 292 988 275 978 q 328 1005 308 999 q 375 1014 349 1011 q 438 1019 401 1017 l 438 986 q 401 976 419 982 q 365 957 382 969 q 331 922 343 940 q 313 882 318 903 q 306 838 307 861 q 304 793 304 815 l 304 676 q 302 541 304 596 q 290 450 300 486 q 257 393 279 414 q 193 358 235 372 q 258 322 235 343 q 291 269 281 301 q 303 190 301 236 q 306 76 306 143 l 306 -39 q 307 -110 306 -81 q 317 -165 308 -139 q 339 -210 325 -193 q 369 -239 353 -228 q 403 -257 385 -250 q 438 -269 421 -264 l 438 -303 q 326 -287 368 -297 q 253 -239 285 -278 q 213 -150 219 -199 q 207 -46 207 -101 l 207 104 q 207 156 207 136 q 206 190 207 176 q 204 213 206 204 q 201 233 203 222 q 183 288 194 267 q 157 320 171 308 q 131 337 143 332 q 111 344 118 342 l 111 376 z "},"|":{"ha":318,"x_min":118,"x_max":201,"o":"m 201 -358 l 118 -358 l 118 1331 l 201 1331 l 201 -358 z "},"}":{"ha":492,"x_min":54,"x_max":381,"o":"m 381 344 q 360 337 374 342 q 334 320 347 332 q 308 288 321 308 q 290 233 296 267 q 287 213 288 222 q 285 190 286 204 q 285 156 285 176 q 285 104 285 136 l 285 -46 q 278 -150 285 -101 q 239 -239 272 -199 q 165 -287 207 -278 q 54 -303 124 -297 l 54 -269 q 89 -257 71 -264 q 123 -239 107 -250 q 153 -211 139 -228 q 175 -167 167 -194 q 185 -110 183 -139 q 186 -39 186 -81 l 186 76 q 188 190 186 143 q 201 269 190 236 q 234 322 211 301 q 299 358 257 343 q 235 393 257 372 q 202 450 213 414 q 190 541 192 486 q 188 676 188 596 l 188 793 q 186 838 188 815 q 179 882 185 861 q 161 922 174 903 q 126 957 149 940 q 91 976 110 969 q 54 986 72 982 l 54 1019 q 117 1014 90 1017 q 163 1005 143 1011 q 200 988 183 999 q 233 960 217 978 q 263 913 253 938 q 278 860 274 889 q 285 800 283 832 q 286 731 286 768 l 286 581 q 288 507 286 540 q 299 448 290 474 q 327 404 308 422 q 381 376 346 386 l 381 344 z "},"~":{"ha":1013,"x_min":186,"x_max":826,"o":"m 826 418 q 749 342 792 374 q 649 311 707 311 q 617 314 632 311 q 584 324 603 317 q 539 342 565 331 q 474 374 513 354 q 421 397 451 385 q 358 408 390 408 q 323 403 338 408 q 294 388 308 399 q 266 360 281 376 q 232 318 251 343 l 186 393 q 208 425 194 406 q 243 462 222 444 q 292 492 264 479 q 357 504 321 504 q 435 490 397 504 q 514 456 474 475 q 565 431 544 440 q 601 417 586 422 q 626 409 615 411 q 649 407 638 407 q 692 415 672 407 q 729 437 713 424 q 759 465 746 450 q 783 494 772 481 l 826 418 z "},"¡":{"ha":435,"x_min":138,"x_max":244,"o":"m 224 704 l 240 393 l 240 0 l 142 0 l 142 422 l 160 704 l 224 704 m 138 981 l 244 981 l 244 844 l 138 844 l 138 981 z "},"¢":{"ha":926,"x_min":60,"x_max":901,"o":"m 515 847 l 515 703 q 560 701 535 703 q 617 690 585 699 q 729 647 682 675 q 808 588 776 618 q 860 529 840 557 q 889 485 879 501 l 803 450 q 770 499 790 469 q 717 555 750 528 q 635 603 683 582 q 515 629 586 625 l 515 63 q 599 76 553 67 q 694 117 644 85 q 772 188 746 149 q 815 264 797 228 l 901 231 q 828 125 867 169 q 742 51 789 81 q 640 4 696 21 q 515 -17 583 -12 l 515 -161 l 439 -161 l 439 -17 q 426 -17 432 -17 q 415 -15 421 -17 q 274 19 339 -8 q 162 94 210 47 q 87 203 114 140 q 60 344 60 267 q 102 518 60 447 q 207 633 144 589 q 274 669 240 656 q 339 690 308 683 q 395 700 369 697 q 439 704 421 703 l 439 847 l 515 847 m 439 629 q 308 593 361 622 q 222 522 254 564 q 174 434 189 481 q 160 346 160 388 q 174 253 160 299 q 215 172 188 208 q 289 108 244 138 q 372 72 335 81 q 439 61 408 64 l 439 629 z "},"£":{"ha":1100,"x_min":51,"x_max":1036,"o":"m 285 543 q 261 569 276 551 q 231 611 246 586 q 206 668 217 636 q 196 740 196 700 q 219 834 196 788 q 290 917 243 881 q 409 976 338 954 q 576 999 481 999 q 717 983 654 999 q 828 940 779 968 q 906 876 876 911 q 953 806 936 842 q 976 738 969 771 q 986 678 982 704 l 894 678 q 856 800 889 753 q 776 874 822 847 q 677 909 729 900 q 581 918 625 918 q 467 906 519 918 q 376 872 415 894 q 314 814 336 849 q 292 733 292 779 q 305 669 292 699 q 338 617 318 640 q 378 574 357 593 q 415 543 399 556 l 736 543 l 736 465 l 483 465 q 509 436 493 456 q 540 390 525 417 q 567 330 556 364 q 578 257 578 296 q 574 219 578 236 q 564 178 571 201 q 624 143 592 161 q 688 110 656 125 q 753 85 721 94 q 815 75 786 75 q 877 88 851 75 q 919 124 903 101 q 944 178 936 147 q 951 244 951 210 q 951 272 951 258 q 949 300 950 286 l 1035 300 q 1035 219 1036 260 q 1018 136 1033 179 q 998 92 1011 117 q 960 43 985 67 q 899 3 936 19 q 807 -12 861 -12 q 724 -1 764 -12 q 648 30 683 11 q 581 71 613 49 q 522 113 549 93 q 490 75 507 93 q 442 38 474 57 q 344 -3 390 6 q 265 -11 297 -11 q 178 1 218 -11 q 111 34 139 13 q 67 85 83 56 q 51 150 51 114 q 67 210 51 183 q 109 255 82 236 q 172 283 136 274 q 249 293 207 293 q 376 272 319 293 q 483 225 432 250 q 485 243 485 235 q 486 261 486 251 q 470 330 486 297 q 433 389 454 363 q 390 435 413 415 q 356 465 368 454 l 67 465 l 67 543 l 285 543 m 456 150 q 369 196 417 174 q 260 218 322 218 q 178 199 213 218 q 143 143 143 181 q 174 89 143 110 q 264 68 206 68 q 328 76 296 68 q 392 100 360 83 q 430 124 417 113 q 456 150 443 136 z "},"⁄":{"ha":174,"x_min":-229,"x_max":406,"o":"m 339 981 l 406 981 l -162 0 l -229 0 l 339 981 z "},"¥":{"ha":1013,"x_min":8,"x_max":1004,"o":"m 654 511 l 899 511 l 899 436 l 594 436 l 560 390 l 560 342 l 899 342 l 899 267 l 560 267 l 560 0 l 471 0 l 471 267 l 117 267 l 117 342 l 471 342 l 471 390 l 435 436 l 117 436 l 117 511 l 374 511 l 8 964 l 125 964 l 514 468 l 894 964 l 1004 964 l 654 511 z "},"ƒ":{"ha":492,"x_min":-158,"x_max":539,"o":"m 197 797 q 207 853 200 821 q 235 913 214 885 q 299 962 257 942 q 411 982 340 982 q 476 978 447 982 q 539 967 504 975 l 529 888 q 503 893 515 890 q 479 898 492 896 q 451 901 467 900 q 414 901 435 901 q 350 891 374 901 q 313 863 326 881 q 294 822 300 844 q 286 776 289 800 l 272 664 l 504 664 l 496 592 l 264 592 l 183 -132 q 167 -200 178 -167 q 134 -259 157 -233 q 72 -301 111 -285 q -31 -317 32 -317 q -96 -313 -67 -317 q -158 -301 -125 -310 l -149 -222 q -100 -233 -124 -229 q -33 -236 -76 -236 q 29 -226 6 -236 q 66 -197 53 -215 q 85 -157 79 -179 q 94 -111 90 -135 l 174 592 l 38 592 l 46 664 l 182 664 l 197 797 z "},"§":{"ha":956,"x_min":50,"x_max":903,"o":"m 169 -118 q 213 -137 192 -128 q 257 -154 235 -146 q 319 -174 286 -165 q 385 -187 353 -182 q 447 -197 418 -193 q 499 -200 476 -200 q 589 -187 550 -200 q 653 -151 628 -174 q 692 -101 679 -129 q 704 -42 704 -72 q 694 6 704 -14 q 669 41 685 26 q 632 66 653 56 q 589 83 611 76 q 551 94 576 88 q 492 110 525 101 q 424 128 460 119 q 358 145 389 138 q 302 160 326 153 q 268 169 278 167 q 213 189 249 175 q 140 230 176 203 q 77 301 104 257 q 50 413 50 346 q 58 479 50 444 q 79 543 65 514 q 116 599 96 576 q 156 638 136 622 q 192 664 175 654 q 219 678 210 674 q 197 714 213 689 q 182 785 182 739 q 196 854 182 815 q 242 926 210 893 q 328 983 274 960 q 461 1006 382 1006 q 556 998 511 1006 q 642 978 601 990 q 717 951 682 965 q 781 922 751 936 l 729 850 q 606 898 676 874 q 457 922 535 922 q 344 900 392 922 q 297 858 317 885 q 278 796 278 831 q 289 749 278 768 q 317 719 300 731 q 358 699 335 707 q 407 683 382 690 q 533 649 469 664 q 658 615 596 635 q 737 587 694 604 q 816 538 779 569 q 878 460 853 507 q 903 343 903 413 q 884 238 903 289 q 832 151 865 188 q 795 119 813 131 q 760 96 778 107 q 788 47 774 76 q 803 -32 803 18 q 788 -112 803 -68 q 738 -194 774 -156 q 640 -258 701 -232 q 488 -285 579 -285 q 378 -276 429 -285 q 279 -253 326 -267 q 190 -224 232 -240 q 111 -190 149 -207 l 169 -118 m 282 629 q 226 590 254 611 q 175 528 199 568 q 144 419 144 474 q 147 391 144 410 q 162 350 150 372 q 198 306 174 328 q 264 269 222 283 q 291 260 268 267 q 346 246 314 254 q 416 227 378 238 q 489 208 454 217 q 551 191 524 199 q 593 181 579 183 q 626 171 613 175 q 649 163 639 167 q 670 154 660 158 q 694 144 681 150 q 742 181 718 160 q 785 243 765 203 q 807 338 807 288 q 785 426 807 392 q 730 484 764 461 q 651 521 696 507 q 561 546 607 535 q 465 569 513 557 q 371 596 418 582 q 319 613 336 607 q 282 629 303 618 z "},"¤":{"ha":926,"x_min":79,"x_max":847,"o":"m 744 689 q 767 656 754 675 q 792 611 781 638 q 811 551 803 585 q 819 472 819 517 q 811 392 819 428 q 791 331 803 357 q 766 285 779 304 q 743 253 753 265 l 846 150 l 782 86 l 681 190 q 648 167 667 181 q 603 143 629 154 q 542 124 576 132 q 464 115 507 115 q 384 124 419 115 q 322 143 349 132 q 276 167 296 154 q 244 190 257 181 l 142 89 l 79 151 l 183 253 q 159 286 172 267 q 135 332 146 306 q 115 392 124 358 q 107 471 107 426 q 115 549 107 514 q 135 610 124 583 q 159 657 146 638 q 182 689 172 676 l 82 790 l 144 853 l 244 751 q 276 774 257 761 q 323 799 296 788 q 385 819 350 811 q 464 828 419 828 q 542 819 507 828 q 603 800 576 811 q 649 776 629 789 q 682 753 668 763 l 783 854 l 847 790 l 744 689 m 735 472 q 713 583 735 532 q 654 669 692 633 q 567 726 617 706 q 463 746 518 746 q 356 725 406 746 q 270 668 307 704 q 212 582 233 632 q 190 472 190 532 q 212 363 190 414 q 271 276 233 313 q 358 218 308 239 q 465 197 408 197 q 570 218 521 197 q 656 275 619 239 q 713 362 692 311 q 735 472 735 413 z "},"'":{"ha":289,"x_min":83,"x_max":207,"o":"m 157 618 l 131 618 l 85 954 q 83 967 83 963 q 83 978 83 972 q 104 1026 83 1011 q 147 1040 125 1040 q 160 1039 150 1040 q 181 1031 171 1038 q 199 1011 192 1025 q 206 972 207 997 l 157 618 z "},"“":{"ha":579,"x_min":135,"x_max":446,"o":"m 253 686 l 135 686 l 135 851 q 138 903 135 875 q 161 956 142 932 q 203 987 181 982 q 244 992 225 992 l 244 936 q 213 926 224 935 q 198 902 203 917 q 192 869 193 888 q 192 831 192 851 l 253 831 l 253 686 m 446 686 l 328 686 l 328 851 q 333 903 329 875 q 354 956 336 932 q 397 987 375 982 q 438 992 418 992 l 438 936 q 407 926 418 935 q 391 902 396 917 q 385 869 386 888 q 385 831 385 851 l 446 831 l 446 686 z "},"«":{"ha":724,"x_min":76,"x_max":649,"o":"m 649 713 l 649 633 l 457 433 l 649 232 l 649 153 l 367 396 l 367 472 l 649 713 m 354 710 l 354 629 l 165 433 l 354 236 l 354 156 l 76 396 l 76 472 l 354 710 z "},"‹":{"ha":347,"x_min":32,"x_max":313,"o":"m 313 713 l 313 633 l 122 433 l 313 232 l 313 153 l 32 396 l 32 472 l 313 713 z "},"›":{"ha":347,"x_min":32,"x_max":311,"o":"m 32 711 l 311 471 l 311 397 l 32 157 l 32 238 l 221 433 l 32 631 l 32 711 z "},"ﬁ":{"ha":781,"x_min":14,"x_max":682,"o":"m 150 819 q 151 866 150 843 q 164 913 153 889 q 203 966 179 947 q 254 993 228 985 q 305 1003 281 1001 q 343 1004 329 1004 q 409 1001 379 1004 q 474 989 439 997 l 474 910 q 422 920 446 917 q 356 924 399 924 q 293 913 315 924 q 259 885 271 903 q 244 844 247 867 q 242 799 242 822 l 242 688 l 474 688 l 474 615 l 242 615 l 242 0 l 150 0 l 150 615 l 14 615 l 14 688 l 150 688 l 150 819 m 592 942 l 682 942 l 682 808 l 592 808 l 592 942 m 592 688 l 682 688 l 682 0 l 592 0 l 592 688 z "},"ﬂ":{"ha":781,"x_min":14,"x_max":683,"o":"m 150 821 q 152 868 150 844 q 164 914 154 892 q 203 967 179 949 q 254 994 228 986 q 304 1004 281 1003 q 342 1006 328 1006 q 408 1002 378 1006 q 472 990 438 999 l 472 911 q 447 917 458 914 q 422 922 435 919 q 392 924 408 924 q 353 925 375 925 q 286 909 308 925 q 253 872 264 893 q 242 831 243 851 q 242 800 242 810 l 242 688 l 472 688 l 472 615 l 242 615 l 242 0 l 150 0 l 150 615 l 14 615 l 14 688 l 150 688 l 150 821 m 590 982 l 683 982 l 683 0 l 590 0 l 590 982 z "},"–":{"ha":1013,"x_min":71,"x_max":942,"o":"m 942 513 l 942 431 l 71 431 l 71 513 l 942 513 z "},"†":{"ha":753,"x_min":50,"x_max":703,"o":"m 418 981 l 418 689 l 703 689 l 703 617 l 418 617 l 418 0 l 335 0 l 335 617 l 50 617 l 50 689 l 335 689 l 335 981 l 418 981 z "},"‡":{"ha":753,"x_min":46,"x_max":706,"o":"m 335 981 l 418 981 l 418 719 l 706 719 l 706 646 l 418 646 l 418 378 l 706 378 l 706 304 l 418 304 l 418 -1 l 335 -1 l 335 304 l 50 304 l 50 378 l 335 378 l 335 644 l 46 644 l 46 719 l 335 719 l 335 981 z "},"·":{"ha":376,"x_min":133,"x_max":240,"o":"m 133 542 l 240 542 l 240 404 l 133 404 l 133 542 z "},"¶":{"ha":926,"x_min":125,"x_max":739,"o":"m 739 981 l 739 919 l 692 919 l 692 -232 l 628 -232 l 628 919 l 410 919 l 410 -232 l 346 -232 l 346 458 q 287 471 318 463 q 218 507 256 479 q 148 597 171 543 q 125 711 125 651 q 151 835 125 786 q 210 911 178 883 q 267 950 238 936 q 326 970 297 964 q 383 978 356 976 q 431 981 410 981 l 739 981 z "},"•":{"ha":463,"x_min":65,"x_max":397,"o":"m 397 490 q 385 426 397 457 q 352 374 374 396 q 301 338 331 351 q 235 325 271 325 q 167 338 197 325 q 113 374 136 351 q 78 426 90 396 q 65 490 65 457 q 77 551 65 521 q 111 604 89 581 q 165 642 133 628 q 233 656 196 656 q 299 642 268 656 q 351 607 329 629 q 385 555 372 585 q 397 490 397 525 z "},"‚":{"ha":376,"x_min":128,"x_max":246,"o":"m 246 -31 q 243 -69 246 -47 q 230 -110 240 -90 q 197 -144 219 -131 q 136 -160 175 -158 l 136 -110 q 171 -97 158 -107 q 188 -71 183 -86 q 194 -37 193 -56 q 193 0 194 -19 l 128 0 l 128 144 l 246 144 l 246 -31 z "},"„":{"ha":579,"x_min":132,"x_max":444,"o":"m 326 144 l 444 144 l 444 -19 q 440 -72 443 -43 q 417 -124 436 -100 q 375 -156 397 -151 q 333 -161 353 -160 l 333 -106 q 365 -95 354 -104 q 381 -72 375 -86 q 386 -39 386 -57 q 386 0 386 -21 l 326 0 l 326 144 m 132 144 l 250 144 l 250 -19 q 245 -72 249 -43 q 224 -124 242 -100 q 182 -156 204 -151 q 140 -161 160 -160 l 140 -106 q 171 -95 160 -104 q 187 -72 182 -86 q 192 -39 192 -57 q 193 0 193 -21 l 132 0 l 132 144 z "},"”":{"ha":579,"x_min":132,"x_max":444,"o":"m 326 981 l 444 981 l 444 817 q 440 765 443 793 q 417 713 436 736 q 375 681 397 685 q 333 676 353 676 l 333 731 q 365 741 354 732 q 381 765 375 750 q 386 797 386 779 q 386 836 386 815 l 326 836 l 326 981 m 132 981 l 250 981 l 250 817 q 245 765 249 793 q 224 713 242 736 q 182 681 204 685 q 140 676 160 676 l 140 731 q 171 741 160 732 q 187 765 182 750 q 192 797 192 779 q 193 836 193 815 l 132 836 l 132 981 z "},"»":{"ha":724,"x_min":75,"x_max":647,"o":"m 75 714 l 356 474 l 356 396 l 75 156 l 75 233 l 265 433 l 75 635 l 75 714 m 369 711 l 647 471 l 647 397 l 369 157 l 369 238 l 557 433 l 369 631 l 369 711 z "},"…":{"ha":1389,"x_min":178,"x_max":1213,"o":"m 178 138 l 285 138 l 285 0 l 178 0 l 178 138 m 642 138 l 749 138 l 749 0 l 642 0 l 642 138 m 1106 138 l 1213 138 l 1213 0 l 1106 0 l 1106 138 z "},"‰":{"ha":2171,"x_min":42,"x_max":2124,"o":"m 1157 610 q 1277 590 1222 613 q 1372 524 1332 567 q 1435 424 1413 482 q 1458 299 1458 365 q 1437 181 1458 236 q 1377 83 1415 125 q 1285 16 1339 40 q 1165 -8 1231 -8 q 1053 15 1106 -8 q 961 78 1000 38 q 900 176 922 119 q 878 303 878 233 q 899 425 878 369 q 959 521 921 481 q 1048 584 997 561 q 1157 610 1099 607 m 1158 547 q 1067 526 1107 546 q 1001 474 1028 507 q 960 397 974 442 q 946 301 946 353 q 967 185 946 232 q 1022 108 989 138 q 1092 66 1054 79 q 1165 53 1131 53 q 1247 67 1207 53 q 1317 113 1286 82 q 1367 189 1349 143 q 1386 296 1386 235 q 1369 403 1386 356 q 1323 483 1353 450 q 1251 532 1293 515 q 1158 547 1208 549 m 1822 610 q 1943 590 1888 613 q 2039 524 1999 567 q 2101 424 2079 482 q 2124 299 2124 365 q 2103 181 2124 236 q 2043 83 2082 125 q 1951 16 2004 40 q 1831 -8 1897 -8 q 1718 15 1771 -8 q 1626 78 1665 38 q 1565 176 1588 119 q 1543 303 1543 233 q 1565 424 1543 369 q 1624 519 1586 479 q 1713 583 1663 560 q 1822 610 1764 607 m 1824 547 q 1733 526 1772 546 q 1666 474 1693 507 q 1625 397 1639 442 q 1611 301 1611 353 q 1633 185 1611 232 q 1687 108 1654 138 q 1758 66 1719 79 q 1831 53 1796 53 q 1912 67 1872 53 q 1983 113 1951 82 q 2033 189 2014 143 q 2051 296 2051 235 q 2035 403 2051 356 q 1988 483 2018 450 q 1916 532 1958 515 q 1824 547 1874 549 m 989 956 l 1063 956 l 508 0 l 435 0 l 989 956 m 321 961 q 442 941 386 964 q 538 876 497 918 q 600 776 578 835 q 622 651 622 718 q 601 533 622 589 q 541 434 579 476 q 449 367 503 392 q 329 343 394 343 q 217 366 269 343 q 126 430 165 389 q 65 528 88 471 q 42 654 42 585 q 63 776 42 721 q 123 872 85 832 q 212 935 161 913 q 321 961 263 958 m 324 900 q 233 879 272 899 q 166 827 193 860 q 125 749 139 794 q 111 653 111 704 q 133 536 111 583 q 186 460 154 489 q 257 417 218 431 q 331 404 296 404 q 410 419 371 404 q 481 465 450 435 q 532 542 513 496 q 551 649 551 588 q 535 756 551 708 q 488 835 518 803 q 415 885 457 868 q 324 900 374 901 z "},"¿":{"ha":983,"x_min":71,"x_max":871,"o":"m 871 279 q 850 222 863 254 q 817 158 838 190 q 768 94 797 125 q 696 36 739 63 q 458 -22 601 -22 q 300 -1 371 -22 q 178 61 229 21 q 99 158 126 101 q 71 286 71 215 q 96 412 71 357 q 160 500 121 467 q 237 550 194 532 q 324 582 279 568 q 401 606 374 596 q 441 627 428 615 q 457 657 454 639 q 461 708 460 675 l 547 708 q 542 633 546 663 q 524 582 538 603 q 482 547 510 561 q 406 519 454 533 q 358 505 382 513 q 311 488 335 497 q 269 469 294 481 q 221 435 244 457 q 180 378 197 414 q 163 292 163 343 q 191 181 163 225 q 263 109 219 136 q 359 71 307 82 q 458 60 411 60 q 557 72 506 60 q 661 119 608 83 q 710 160 690 139 q 745 206 731 182 q 769 255 760 229 q 790 310 779 281 l 871 279 m 453 844 l 453 981 l 558 981 l 558 844 l 453 844 z "},"`":{"ha":521,"x_min":132,"x_max":389,"o":"m 285 971 l 389 769 l 329 769 l 132 971 l 285 971 z "},"´":{"ha":521,"x_min":131,"x_max":390,"o":"m 239 972 l 390 972 l 190 771 l 131 771 l 239 972 z "},"ˆ":{"ha":521,"x_min":72,"x_max":447,"o":"m 304 946 l 447 763 l 375 763 l 263 881 l 147 763 l 72 763 l 222 946 l 304 946 z "},"˜":{"ha":521,"x_min":-28,"x_max":549,"o":"m -28 854 q 3 889 -14 871 q 41 922 19 907 q 90 947 63 938 q 150 957 117 957 q 181 955 165 957 q 217 948 196 953 q 269 935 239 943 q 344 914 299 926 q 378 906 360 910 q 413 901 396 901 q 447 908 432 901 q 474 922 463 914 q 492 940 485 931 q 506 958 500 950 l 549 942 q 527 910 540 929 q 493 873 514 892 q 443 841 472 854 q 375 828 414 828 q 329 832 351 828 q 283 843 307 836 q 213 865 247 854 q 142 883 178 876 q 128 885 135 885 q 114 886 121 886 q 49 867 72 886 q 11 829 26 847 l -28 854 z "},"¯":{"ha":521,"x_min":28,"x_max":493,"o":"m 28 790 l 28 863 l 493 863 l 493 790 l 28 790 z "},"˘":{"ha":521,"x_min":67,"x_max":454,"o":"m 454 946 q 443 897 450 922 q 417 846 436 872 q 351 793 392 813 q 258 774 311 774 q 159 797 196 774 q 102 849 122 819 q 75 906 82 878 q 67 946 68 935 l 138 946 q 176 865 146 893 q 260 838 207 838 q 326 853 303 838 q 361 883 350 869 q 380 915 376 900 q 386 946 383 931 l 454 946 z "},"˙":{"ha":521,"x_min":215,"x_max":304,"o":"m 304 944 l 304 814 l 215 814 l 215 944 l 304 944 z "},"¨":{"ha":521,"x_min":28,"x_max":493,"o":"m 125 924 l 125 790 l 28 790 l 28 924 l 125 924 m 396 924 l 493 924 l 493 790 l 396 790 l 396 924 z "},"˚":{"ha":521,"x_min":101,"x_max":418,"o":"m 249 1000 q 371 972 324 1004 q 418 882 418 939 q 405 831 418 853 q 369 793 392 808 q 319 769 347 778 q 260 761 290 761 q 204 768 232 761 q 153 790 176 775 q 116 826 131 804 q 101 879 101 849 q 114 931 101 908 q 147 967 126 953 q 194 990 168 982 q 249 1000 221 999 m 257 943 q 197 925 221 942 q 174 882 174 908 q 177 864 174 874 q 190 844 181 854 q 215 828 199 835 q 258 822 232 822 q 325 841 306 822 q 344 882 344 860 q 323 924 344 904 q 257 943 301 944 z "},"¸":{"ha":521,"x_min":124,"x_max":397,"o":"m 263 28 l 263 -83 q 304 -87 282 -85 q 350 -103 326 -89 q 386 -137 375 -117 q 397 -179 397 -157 q 394 -204 397 -186 q 374 -240 390 -222 q 325 -272 358 -258 q 232 -286 292 -286 q 178 -283 204 -286 q 124 -276 151 -279 l 124 -231 q 166 -235 144 -233 q 208 -236 188 -236 q 233 -235 217 -236 q 267 -230 250 -235 q 296 -215 283 -225 q 308 -187 308 -206 q 297 -156 308 -167 q 267 -141 285 -146 q 232 -135 250 -136 q 201 -135 214 -135 l 201 28 l 263 28 z "},"˝":{"ha":521,"x_min":36,"x_max":483,"o":"m 144 972 l 296 972 l 96 771 l 36 771 l 144 972 m 332 972 l 483 972 l 283 771 l 224 771 l 332 972 z "},"˛":{"ha":521,"x_min":132,"x_max":388,"o":"m 388 -249 q 341 -253 364 -251 q 294 -256 318 -256 q 260 -253 286 -256 q 205 -241 233 -251 q 154 -207 176 -231 q 132 -140 132 -183 q 160 -65 132 -103 q 258 4 188 -26 l 326 4 l 328 1 q 267 -30 289 -15 q 233 -58 244 -44 q 219 -84 222 -72 q 217 -107 217 -96 q 220 -130 217 -117 q 235 -155 224 -143 q 265 -175 246 -167 q 318 -183 285 -183 q 351 -182 335 -183 q 388 -178 367 -181 l 388 -249 z "},"ˇ":{"ha":521,"x_min":72,"x_max":449,"o":"m 215 763 l 72 946 l 146 946 l 258 828 l 374 946 l 449 946 l 300 763 l 215 763 z "},"—":{"ha":1128,"x_min":71,"x_max":1058,"o":"m 1058 513 l 1058 431 l 71 431 l 71 513 l 1058 513 z "},"Æ":{"ha":1563,"x_min":-17,"x_max":1507,"o":"m 1488 981 l 1488 899 l 811 899 l 811 547 l 1432 547 l 1432 465 l 811 465 l 811 82 l 1507 82 l 1507 0 l 719 0 l 719 242 l 261 242 l 89 0 l -17 0 l 688 981 l 1488 981 m 719 829 q 719 848 719 839 q 721 865 719 857 q 723 883 722 875 q 726 900 724 892 l 317 319 l 719 319 l 719 829 z "},"ª":{"ha":607,"x_min":25,"x_max":626,"o":"m 29 836 q 50 897 38 868 q 99 950 63 925 q 146 974 119 965 q 199 988 172 983 q 249 993 225 992 q 290 994 274 994 q 422 982 371 994 q 501 947 472 969 q 540 894 529 925 q 550 825 550 863 l 550 619 q 563 570 550 585 q 626 558 576 556 l 626 501 q 599 497 611 499 q 571 496 586 496 q 526 503 542 496 q 501 520 510 510 q 490 542 493 531 q 486 565 488 554 q 453 542 474 556 q 403 517 433 529 q 333 495 374 504 q 242 486 293 486 q 157 493 199 486 q 82 526 115 500 q 44 571 63 542 q 25 647 25 600 q 26 671 25 653 q 37 710 28 689 q 65 751 46 731 q 118 786 83 772 q 254 813 168 807 q 482 821 340 818 q 478 858 482 839 q 457 892 475 876 q 402 919 439 908 q 297 929 365 929 q 203 921 239 929 q 149 899 168 913 q 120 868 129 886 q 104 832 111 850 l 29 836 m 482 758 q 410 758 451 758 q 327 755 369 757 q 246 749 285 753 q 181 736 207 744 q 156 727 169 733 q 131 710 143 721 q 110 682 118 699 q 101 643 101 665 q 140 578 101 603 q 244 553 178 553 q 346 567 296 553 q 428 604 396 581 q 457 633 446 618 q 474 665 468 647 q 481 706 479 683 q 482 758 482 729 z "},"Ł":{"ha":956,"x_min":1,"x_max":926,"o":"m 213 453 l 719 736 l 719 653 l 213 369 l 213 82 l 926 82 l 926 0 l 117 0 l 117 315 l 1 250 l 1 333 l 117 399 l 117 981 l 213 981 l 213 453 z "},"Ø":{"ha":1274,"x_min":50,"x_max":1218,"o":"m 174 157 q 139 204 158 175 q 101 274 119 233 q 69 366 82 314 q 57 483 57 418 q 94 678 57 585 q 206 844 132 772 q 388 960 279 917 q 640 1003 497 1003 q 694 1001 663 1003 q 763 993 725 1000 q 844 973 801 986 q 933 938 888 960 q 993 903 971 919 q 1040 867 1015 888 l 1168 971 l 1218 913 l 1094 811 q 1137 756 1115 789 q 1176 683 1158 724 q 1204 592 1193 642 q 1215 486 1215 543 q 1172 278 1215 374 q 1050 114 1128 183 q 865 6 972 44 q 631 -33 758 -33 q 543 -28 592 -33 q 441 -9 494 -24 q 333 33 388 6 q 228 103 278 60 l 97 -3 l 50 56 l 174 157 m 971 810 q 931 840 950 826 q 878 868 913 853 q 736 911 803 903 q 631 919 669 919 q 422 881 511 919 q 275 780 333 842 q 188 641 217 718 q 158 486 158 564 q 168 386 158 431 q 192 308 178 342 q 221 252 206 275 q 246 215 236 229 l 971 810 m 297 161 q 339 130 317 146 q 401 97 361 114 q 531 60 468 69 q 642 50 593 50 q 824 80 739 50 q 972 166 908 110 q 1073 303 1036 222 q 1110 488 1110 385 q 1101 583 1110 542 q 1079 658 1092 625 q 1051 714 1067 690 q 1024 756 1036 738 l 297 161 z "},"Œ":{"ha":1592,"x_min":53,"x_max":1542,"o":"m 828 32 q 736 -3 794 17 q 582 -22 678 -22 q 351 23 450 -22 q 186 141 253 68 q 86 306 119 214 q 53 493 53 399 q 87 679 53 588 q 188 842 121 771 q 351 958 254 914 q 572 1001 447 1001 q 649 997 615 1001 q 713 985 683 993 q 770 967 743 978 q 828 944 797 957 l 828 981 l 1522 981 l 1522 899 l 924 899 l 924 550 l 1481 550 l 1481 468 l 924 468 l 924 82 l 1542 82 l 1542 0 l 828 0 l 828 32 m 828 857 q 708 903 769 888 q 581 919 646 919 q 392 880 472 919 q 260 778 313 840 q 183 640 208 715 q 158 493 158 564 q 183 342 158 418 q 262 203 208 265 q 399 101 315 140 q 601 63 483 63 q 731 79 678 63 q 828 115 783 96 l 828 857 z "},"º":{"ha":665,"x_min":33,"x_max":632,"o":"m 331 996 q 460 976 404 997 q 555 920 517 956 q 613 838 593 885 q 632 739 632 790 q 606 627 632 675 q 536 547 579 579 q 438 499 493 515 q 328 483 383 483 q 198 506 253 483 q 106 563 143 528 q 51 644 69 599 q 33 739 33 690 q 56 843 33 796 q 117 924 78 890 q 211 976 157 957 q 331 996 265 994 m 325 933 q 244 919 282 932 q 176 881 206 906 q 131 819 147 856 q 114 736 114 783 q 125 670 114 700 q 154 618 136 640 q 234 564 186 579 q 332 547 282 549 q 494 602 435 549 q 553 738 553 656 q 535 820 553 783 q 488 883 518 857 q 415 922 457 908 q 325 933 374 935 z "},"æ":{"ha":1592,"x_min":56,"x_max":1532,"o":"m 83 493 q 103 551 90 518 q 154 621 117 585 q 186 647 165 632 q 242 676 207 663 q 332 699 278 689 q 464 708 386 708 q 514 707 489 708 q 564 703 539 706 q 643 691 604 699 q 718 667 682 683 q 789 617 769 643 q 819 567 808 592 q 942 666 858 625 q 1139 707 1025 707 q 1242 697 1190 707 q 1341 663 1294 686 q 1426 605 1388 640 q 1490 519 1465 569 q 1524 417 1518 467 q 1532 340 1529 368 l 840 340 q 841 313 840 331 q 846 272 842 294 q 860 222 850 249 q 890 171 871 196 q 953 113 917 135 q 1028 79 990 90 q 1099 65 1065 68 q 1157 61 1133 61 q 1266 75 1210 61 q 1369 121 1322 89 q 1408 154 1393 138 q 1434 186 1424 171 q 1450 215 1444 201 q 1460 236 1456 228 l 1532 189 q 1506 142 1521 168 q 1458 85 1490 115 q 1380 31 1422 51 q 1296 -1 1338 11 q 1217 -16 1254 -12 q 1156 -19 1181 -19 q 1029 -6 1099 -19 q 901 43 960 8 q 827 103 850 74 q 793 156 804 133 q 775 119 786 139 q 732 72 764 99 q 581 0 669 19 q 400 -19 493 -19 q 336 -17 368 -19 q 272 -8 304 -15 q 226 2 250 -4 q 179 19 203 8 q 133 47 156 31 q 94 88 111 64 q 65 147 75 115 q 56 210 56 178 q 70 285 56 251 q 108 342 85 319 q 179 384 138 369 q 267 406 221 399 q 359 414 313 413 q 446 415 406 415 l 750 415 q 747 478 750 450 q 733 529 743 507 q 704 569 724 551 q 651 600 685 586 q 603 615 629 608 q 551 624 578 621 q 501 628 525 626 q 458 629 476 629 q 413 628 439 629 q 361 622 388 626 q 308 611 335 618 q 261 592 282 604 q 203 538 218 568 q 182 485 189 507 l 83 493 m 1428 415 q 1412 477 1424 439 q 1358 553 1400 515 q 1269 606 1325 585 q 1140 628 1214 628 q 1001 602 1064 628 q 901 533 939 576 q 863 472 872 501 q 846 415 853 442 l 1428 415 m 397 340 q 327 338 368 340 q 249 324 286 336 q 185 284 211 311 q 160 207 160 257 q 197 114 160 151 q 333 64 235 76 q 373 60 353 61 q 413 58 393 58 q 563 80 492 58 q 681 143 635 101 q 717 188 704 164 q 738 236 731 211 q 747 288 744 261 q 750 340 749 314 l 397 340 z "},"ı":{"ha":289,"x_min":99,"x_max":190,"o":"m 99 686 l 190 686 l 190 0 l 99 0 l 99 686 z "},"ł":{"ha":289,"x_min":0,"x_max":289,"o":"m 192 618 l 289 693 l 289 604 l 192 529 l 192 0 l 99 0 l 99 458 l 0 382 l 0 471 l 99 547 l 99 981 l 192 981 l 192 618 z "},"ø":{"ha":983,"x_min":44,"x_max":915,"o":"m 860 714 l 908 660 l 818 583 q 840 558 829 572 q 865 521 851 544 q 902 435 889 481 q 915 343 915 390 q 889 210 915 275 q 810 96 863 144 q 671 13 754 43 q 488 -18 588 -18 q 385 -9 431 -18 q 305 13 340 0 q 243 42 269 26 q 199 68 217 57 l 93 -21 l 44 35 l 143 118 q 115 158 131 136 q 87 209 100 181 q 65 272 74 238 q 57 349 57 307 q 80 470 57 411 q 144 576 103 529 q 223 642 179 615 q 313 683 267 668 q 403 703 358 697 q 486 710 449 710 q 590 701 544 710 q 669 679 636 692 q 726 653 703 667 q 761 632 749 640 l 860 714 m 696 578 q 667 594 682 586 q 626 611 653 603 q 554 628 589 624 q 492 632 519 632 q 359 611 421 632 q 251 553 297 590 q 178 462 204 515 q 151 343 151 408 q 158 277 151 306 q 175 228 165 249 q 195 194 185 207 q 211 174 206 181 l 696 578 m 265 122 l 286 110 q 368 77 314 93 q 488 61 422 61 q 626 85 563 61 q 731 146 689 108 q 794 232 768 179 q 821 351 821 285 q 814 415 821 388 q 797 465 807 443 q 775 503 786 488 q 754 531 764 519 l 265 122 z "},"œ":{"ha":1650,"x_min":56,"x_max":1592,"o":"m 1592 188 q 1538 122 1569 158 q 1450 50 1506 85 q 1331 0 1394 17 q 1201 -17 1267 -17 q 1058 4 1126 -17 q 935 65 989 25 q 865 131 888 100 q 835 178 843 163 q 790 116 819 151 q 699 44 761 81 q 610 6 668 28 q 465 -15 553 -15 q 303 10 378 -15 q 174 82 229 35 q 87 196 118 129 q 56 344 56 263 q 88 497 56 429 q 178 611 121 564 q 311 683 235 658 q 474 708 388 708 q 599 693 539 708 q 707 649 658 678 q 783 587 757 619 q 828 524 808 554 q 852 563 838 542 q 897 611 867 585 q 1027 685 954 663 q 1178 708 1100 708 q 1237 705 1201 708 q 1313 690 1272 701 q 1396 656 1353 678 q 1478 597 1439 635 q 1532 531 1511 564 q 1565 464 1553 497 q 1582 398 1576 431 q 1592 335 1588 365 l 882 335 q 884 308 882 324 q 892 271 886 292 q 910 226 899 250 q 940 178 921 203 q 1003 121 968 143 q 1074 85 1038 99 q 1145 67 1110 72 q 1210 63 1181 63 q 1292 71 1256 63 q 1355 91 1328 79 q 1401 115 1382 103 q 1431 136 1419 128 q 1489 194 1469 167 q 1519 240 1508 222 l 1592 188 m 1481 411 q 1473 439 1478 422 q 1459 475 1468 456 q 1434 516 1450 494 q 1393 558 1418 538 q 1333 597 1364 583 q 1274 619 1303 611 q 1219 628 1244 626 q 1174 631 1193 631 q 1131 628 1156 631 q 1076 619 1106 626 q 1017 595 1047 611 q 958 551 986 579 q 942 533 951 544 q 921 503 932 521 q 899 462 910 485 q 883 411 889 439 l 1481 411 m 469 632 q 349 612 406 632 q 251 554 293 592 q 184 464 208 517 q 160 344 160 411 q 177 241 160 290 q 226 157 194 192 q 326 90 263 117 q 468 63 389 63 q 590 83 533 63 q 688 140 646 103 q 753 228 729 176 q 776 343 776 281 q 751 463 776 410 q 685 554 726 517 q 588 612 643 592 q 469 632 532 632 z "},"ß":{"ha":983,"x_min":100,"x_max":922,"o":"m 100 697 q 100 727 100 713 q 103 757 100 742 q 153 887 111 838 q 251 963 194 936 q 372 997 308 989 q 485 1006 435 1006 q 564 1001 525 1006 q 642 988 603 997 q 674 978 651 985 q 722 961 696 972 q 774 931 747 950 q 821 885 800 913 q 848 833 838 861 q 858 769 858 804 q 829 668 858 717 q 736 596 800 619 q 722 592 729 593 q 708 588 715 590 q 723 583 715 585 q 738 579 731 582 q 804 550 772 568 q 862 499 839 529 q 898 436 885 469 q 917 368 911 403 q 922 301 922 333 q 908 195 922 251 q 859 92 894 139 q 763 15 824 46 q 607 -17 701 -17 q 452 19 510 -17 q 369 110 394 54 q 350 176 353 146 q 347 228 347 206 l 436 228 q 438 198 436 215 q 446 163 440 181 q 462 128 451 146 q 490 96 472 110 q 547 70 514 79 q 613 61 579 61 q 707 79 667 61 q 774 128 747 97 q 815 203 801 160 q 828 294 828 246 q 822 364 828 335 q 807 414 815 393 q 789 447 799 435 q 772 467 779 460 q 717 508 747 493 q 653 529 688 522 q 582 538 619 536 q 504 540 544 540 q 458 540 481 540 q 413 539 436 540 l 413 614 q 488 614 453 614 q 558 617 522 614 q 614 622 586 619 q 668 636 642 625 q 739 688 713 654 q 765 765 765 721 q 744 833 765 801 q 679 886 724 864 q 584 915 639 906 q 483 924 529 924 q 430 921 460 924 q 369 912 400 918 q 308 895 338 906 q 257 868 279 885 q 219 828 233 850 q 199 784 206 807 q 191 738 193 761 q 188 693 189 715 l 188 0 l 100 0 l 100 697 z "},"¦":{"ha":318,"x_min":118,"x_max":201,"o":"m 118 -243 l 118 243 l 201 243 l 201 -243 l 118 -243 m 201 451 l 118 451 l 118 938 l 201 938 l 201 451 z "},"Ò":{"ha":1274,"x_min":58,"x_max":1217,"o":"m 640 1011 q 894 964 786 1010 q 1074 845 1003 918 q 1181 680 1146 772 q 1217 493 1217 588 q 1176 292 1217 386 q 1058 126 1135 197 q 874 15 982 56 q 631 -26 765 -26 q 396 13 501 -26 q 215 121 290 51 q 99 285 140 190 q 58 492 58 381 q 99 694 58 600 q 216 860 140 789 q 399 971 292 931 q 640 1011 507 1011 m 610 926 q 407 881 492 921 q 267 778 322 840 q 187 640 213 717 q 161 488 161 564 q 198 306 161 386 q 299 171 235 226 q 451 86 364 115 q 639 57 538 57 q 822 86 736 57 q 972 172 908 115 q 1073 310 1036 228 q 1110 499 1110 392 q 1100 593 1110 544 q 1069 687 1090 642 q 1016 772 1049 732 q 938 843 983 813 q 890 869 921 854 q 817 899 860 885 q 723 921 775 913 q 610 926 671 929 m 414 1250 l 568 1250 l 688 1075 l 621 1075 l 414 1250 z "},"Ç":{"ha":1128,"x_min":57,"x_max":1121,"o":"m 1121 265 q 1067 182 1101 229 q 965 85 1033 135 q 869 27 917 49 q 774 -6 821 6 q 683 -22 726 -18 q 599 -25 639 -25 l 599 -83 q 640 -87 618 -85 q 686 -103 663 -89 q 722 -136 710 -117 q 733 -179 733 -156 q 729 -206 733 -187 q 708 -241 725 -224 q 659 -272 692 -258 q 568 -285 626 -285 q 515 -282 542 -285 q 460 -275 488 -279 l 460 -231 q 502 -235 481 -233 q 544 -236 524 -236 q 568 -235 551 -236 q 601 -230 585 -235 q 631 -215 618 -225 q 644 -187 644 -206 q 633 -156 644 -167 q 604 -141 621 -146 q 569 -135 588 -136 q 538 -135 550 -135 l 538 -22 q 493 -17 519 -21 q 434 -3 467 -12 q 364 20 401 6 q 289 60 326 35 q 198 134 240 90 q 124 233 156 178 q 75 354 93 289 q 57 493 57 419 q 99 700 57 606 q 216 864 142 794 q 391 972 290 933 q 608 1011 492 1011 q 754 994 681 1011 q 897 940 828 978 q 972 891 940 917 q 1026 840 1003 865 q 1065 789 1049 814 q 1096 743 1082 764 l 1014 696 q 963 772 993 729 q 878 850 932 814 q 752 905 821 886 q 613 924 683 924 q 431 891 514 924 q 288 801 349 858 q 194 663 228 743 q 161 488 161 583 q 192 324 161 401 q 281 189 222 247 q 423 96 339 131 q 614 61 507 61 q 790 90 717 61 q 913 158 864 118 q 992 238 963 197 q 1036 304 1021 279 l 1121 265 z "},"×":{"ha":926,"x_min":117,"x_max":808,"o":"m 751 58 l 463 346 l 175 58 l 117 115 l 404 404 l 117 690 l 175 749 l 463 461 l 751 749 l 808 690 l 521 404 l 808 115 l 751 58 z "},"Ñ":{"ha":1244,"x_min":115,"x_max":1131,"o":"m 1131 981 l 1131 0 l 1043 0 l 203 856 l 203 0 l 115 0 l 115 981 l 203 981 l 1043 121 l 1043 981 l 1131 981 m 336 1122 q 365 1157 349 1139 q 403 1190 382 1175 q 451 1215 424 1206 q 511 1225 478 1225 q 598 1215 556 1225 q 681 1193 640 1206 q 730 1178 710 1183 q 772 1174 750 1174 q 810 1179 794 1174 q 838 1193 826 1185 q 856 1211 849 1201 q 868 1229 863 1221 l 911 1213 q 885 1176 900 1196 q 850 1138 871 1156 q 802 1110 829 1121 q 738 1099 775 1099 q 680 1105 708 1099 q 622 1120 651 1111 q 565 1138 593 1129 q 507 1153 536 1147 q 492 1155 500 1154 q 476 1156 483 1156 q 417 1139 439 1156 q 375 1099 394 1122 l 336 1122 z "},"Õ":{"ha":1274,"x_min":58,"x_max":1217,"o":"m 640 1011 q 894 964 786 1010 q 1074 845 1003 918 q 1181 680 1146 772 q 1217 493 1217 588 q 1176 292 1217 386 q 1058 126 1135 197 q 874 15 982 56 q 631 -26 765 -26 q 396 13 501 -26 q 215 121 290 51 q 99 285 140 190 q 58 492 58 381 q 99 694 58 600 q 216 860 140 789 q 399 971 292 931 q 640 1011 507 1011 m 610 926 q 407 881 492 921 q 267 778 322 840 q 187 640 213 717 q 161 488 161 564 q 198 306 161 386 q 299 171 235 226 q 451 86 364 115 q 639 57 538 57 q 822 86 736 57 q 972 172 908 115 q 1073 310 1036 228 q 1110 499 1110 392 q 1100 593 1110 544 q 1069 687 1090 642 q 1016 772 1049 732 q 938 843 983 813 q 890 869 921 854 q 817 899 860 885 q 723 921 775 913 q 610 926 671 929 m 350 1122 q 379 1157 363 1139 q 417 1190 396 1175 q 465 1215 438 1206 q 525 1225 492 1225 q 612 1215 569 1225 q 694 1193 654 1206 q 744 1178 724 1183 q 786 1174 764 1174 q 824 1179 808 1174 q 851 1193 840 1185 q 869 1211 863 1201 q 882 1229 876 1221 l 925 1213 q 899 1176 914 1196 q 864 1138 885 1156 q 816 1110 843 1121 q 751 1099 789 1099 q 694 1105 722 1099 q 636 1120 665 1111 q 578 1138 607 1129 q 521 1153 550 1147 q 506 1155 514 1154 q 490 1156 497 1156 q 431 1139 453 1156 q 389 1099 408 1122 l 350 1122 z "},"µ":{"ha":983,"x_min":97,"x_max":885,"o":"m 794 99 q 753 65 779 85 q 686 27 726 46 q 589 -5 646 8 q 456 -18 532 -18 q 297 3 364 -18 q 189 71 229 24 l 189 -260 l 97 -260 l 97 686 l 189 686 l 189 308 q 196 222 190 268 q 233 140 201 176 q 310 90 257 113 q 456 67 364 67 q 581 79 522 67 q 676 110 639 92 q 743 149 719 128 q 778 193 767 171 q 792 237 789 215 q 794 278 794 258 l 794 686 l 885 686 l 885 0 l 794 0 l 794 99 z "},"Ó":{"ha":1274,"x_min":58,"x_max":1217,"o":"m 640 1011 q 894 964 786 1010 q 1074 845 1003 918 q 1181 680 1146 772 q 1217 493 1217 588 q 1176 292 1217 386 q 1058 126 1135 197 q 874 15 982 56 q 631 -26 765 -26 q 396 13 501 -26 q 215 121 290 51 q 99 285 140 190 q 58 492 58 381 q 99 694 58 600 q 216 860 140 789 q 399 971 292 931 q 640 1011 507 1011 m 610 926 q 407 881 492 921 q 267 778 322 840 q 187 640 213 717 q 161 488 161 564 q 198 306 161 386 q 299 171 235 226 q 451 86 364 115 q 639 57 538 57 q 822 86 736 57 q 972 172 908 115 q 1073 310 1036 228 q 1110 499 1110 392 q 1100 593 1110 544 q 1069 687 1090 642 q 1016 772 1049 732 q 938 843 983 813 q 890 869 921 854 q 817 899 860 885 q 723 921 775 913 q 610 926 671 929 m 701 1250 l 856 1250 l 646 1075 l 583 1075 l 701 1250 z "},"þ":{"ha":983,"x_min":103,"x_max":917,"o":"m 192 578 q 341 677 253 649 q 524 706 429 706 q 697 675 624 706 q 819 594 771 644 q 892 478 868 543 q 917 344 917 413 q 882 190 917 257 q 790 76 847 122 q 659 7 733 31 q 504 -17 585 -17 q 397 -7 444 -17 q 312 19 350 3 q 244 58 274 36 q 192 106 214 81 l 192 -261 l 103 -261 l 103 981 l 192 981 l 192 578 m 501 624 q 365 601 422 624 q 274 549 308 579 q 230 495 246 524 q 206 439 214 467 q 195 385 197 411 q 193 340 193 360 q 194 303 193 324 q 201 258 196 282 q 218 210 207 235 q 249 164 229 186 q 351 94 285 121 q 499 68 418 68 q 618 85 561 68 q 719 138 675 103 q 788 224 763 172 q 814 346 814 276 q 795 451 814 400 q 738 540 776 501 q 640 601 699 578 q 501 624 581 624 z "},"ð":{"ha":983,"x_min":61,"x_max":931,"o":"m 869 888 l 710 851 q 871 641 811 761 q 931 385 931 521 q 908 242 931 314 q 833 113 885 171 q 694 18 781 54 q 483 -18 608 -18 q 300 10 379 -18 q 168 88 221 39 q 88 204 115 138 q 61 347 61 271 q 100 507 61 439 q 200 619 139 575 q 337 686 261 664 q 488 708 413 708 q 605 696 556 708 q 688 665 654 683 q 744 629 722 647 q 778 599 765 611 q 760 639 771 615 q 728 692 749 663 q 676 756 708 721 q 596 828 644 790 l 286 761 l 253 826 l 526 886 q 509 899 522 889 q 492 911 496 908 q 467 928 489 914 q 404 965 444 943 l 521 999 q 556 975 543 983 q 576 961 569 967 q 588 953 583 956 q 596 947 592 950 q 619 929 601 943 q 643 911 636 915 l 835 951 l 869 888 m 485 632 q 369 614 426 631 q 267 562 313 597 q 192 472 221 526 q 164 343 164 418 q 186 225 164 278 q 251 135 208 172 q 353 77 293 97 q 489 57 414 57 q 619 76 558 57 q 724 131 679 94 q 794 220 768 167 q 819 344 819 274 q 790 476 819 421 q 712 566 760 531 q 604 617 664 601 q 485 632 544 633 z "},"Ì":{"ha":318,"x_min":-62,"x_max":211,"o":"m 114 981 l 207 981 l 207 0 l 114 0 l 114 981 m -62 1250 l 92 1250 l 211 1075 l 144 1075 l -62 1250 z "},"Ô":{"ha":1274,"x_min":58,"x_max":1217,"o":"m 640 1011 q 894 964 786 1010 q 1074 845 1003 918 q 1181 680 1146 772 q 1217 493 1217 588 q 1176 292 1217 386 q 1058 126 1135 197 q 874 15 982 56 q 631 -26 765 -26 q 396 13 501 -26 q 215 121 290 51 q 99 285 140 190 q 58 492 58 381 q 99 694 58 600 q 216 860 140 789 q 399 971 292 931 q 640 1011 507 1011 m 610 926 q 407 881 492 921 q 267 778 322 840 q 187 640 213 717 q 161 488 161 564 q 198 306 161 386 q 299 171 235 226 q 451 86 364 115 q 639 57 538 57 q 822 86 736 57 q 972 172 908 115 q 1073 310 1036 228 q 1110 499 1110 392 q 1100 593 1110 544 q 1069 687 1090 642 q 1016 772 1049 732 q 938 843 983 813 q 890 869 921 854 q 817 899 860 885 q 723 921 775 913 q 610 926 671 929 m 586 1250 l 694 1250 l 844 1075 l 756 1075 l 638 1182 l 514 1075 l 426 1075 l 586 1250 z "},"É":{"ha":1157,"x_min":115,"x_max":1094,"o":"m 115 981 l 1054 981 l 1054 899 l 211 899 l 211 556 l 990 556 l 990 474 l 211 474 l 211 82 l 1094 82 l 1094 0 l 115 0 l 115 981 m 644 1250 l 799 1250 l 589 1075 l 526 1075 l 644 1250 z "},"Ë":{"ha":1157,"x_min":115,"x_max":1094,"o":"m 115 981 l 1054 981 l 1054 899 l 211 899 l 211 556 l 990 556 l 990 474 l 211 474 l 211 82 l 1094 82 l 1094 0 l 115 0 l 115 981 m 857 1250 l 857 1115 l 757 1115 l 757 1250 l 857 1250 m 308 1250 l 408 1250 l 408 1115 l 308 1115 l 308 1250 z "},"Á":{"ha":1100,"x_min":10,"x_max":1092,"o":"m 597 981 l 1092 0 l 990 0 l 864 254 l 232 254 l 107 0 l 10 0 l 492 981 l 597 981 m 544 893 l 269 332 l 825 332 l 544 893 m 615 1250 l 769 1250 l 560 1075 l 497 1075 l 615 1250 z "},"Ž":{"ha":1042,"x_min":0,"x_max":1042,"o":"m 1042 981 l 1042 894 l 135 82 l 1017 82 l 1017 0 l 0 0 l 0 79 l 915 899 l 76 899 l 76 981 l 1042 981 m 343 1250 l 433 1250 l 550 1143 l 674 1250 l 764 1250 l 604 1075 l 492 1075 l 343 1250 z "},"ç":{"ha":926,"x_min":56,"x_max":900,"o":"m 900 233 q 854 162 882 203 q 780 83 826 121 q 665 17 733 44 q 497 -15 596 -11 l 497 -83 q 539 -87 517 -85 q 585 -103 561 -89 q 620 -136 608 -117 q 632 -179 632 -156 q 628 -206 632 -187 q 607 -241 624 -224 q 558 -272 590 -258 q 467 -285 525 -285 q 413 -282 440 -285 q 358 -275 386 -279 l 358 -231 q 401 -235 379 -233 q 443 -236 422 -236 q 467 -235 450 -236 q 500 -230 483 -235 q 530 -215 517 -225 q 543 -187 543 -206 q 531 -156 543 -167 q 503 -141 519 -146 q 467 -135 486 -136 q 436 -135 449 -135 l 436 -15 q 388 -10 417 -14 q 325 2 358 -7 q 254 28 292 11 q 181 75 217 46 q 88 191 119 124 q 56 347 56 258 q 94 512 56 443 q 195 626 133 581 q 333 692 257 671 q 483 714 408 714 q 617 697 547 714 q 747 642 686 681 q 839 563 808 603 q 886 496 869 522 l 796 457 q 760 508 782 478 q 701 567 738 539 q 610 615 664 596 q 482 635 557 635 q 338 610 399 635 q 237 544 276 585 q 178 453 197 504 q 158 349 158 401 q 183 231 158 283 q 250 142 207 179 q 351 85 293 106 q 478 65 410 65 q 613 88 549 65 q 719 144 678 110 q 778 211 758 176 q 808 268 797 246 l 900 233 z "},"¬":{"ha":926,"x_min":0,"x_max":926,"o":"m 843 364 l 0 364 l 0 446 l 843 446 l 926 446 l 926 0 l 843 0 l 843 364 z "},"Ã":{"ha":1100,"x_min":10,"x_max":1092,"o":"m 597 981 l 1092 0 l 990 0 l 864 254 l 232 254 l 107 0 l 10 0 l 492 981 l 597 981 m 544 893 l 269 332 l 825 332 l 544 893 m 264 1122 q 293 1157 276 1139 q 331 1190 310 1175 q 378 1215 351 1206 q 439 1225 406 1225 q 526 1215 483 1225 q 608 1193 568 1206 q 658 1178 638 1183 q 700 1174 678 1174 q 738 1179 722 1174 q 765 1193 754 1185 q 783 1211 776 1201 q 796 1229 790 1221 l 839 1213 q 813 1176 828 1196 q 778 1138 799 1156 q 730 1110 757 1121 q 665 1099 703 1099 q 608 1105 636 1099 q 550 1120 579 1111 q 492 1138 521 1129 q 435 1153 464 1147 q 419 1155 428 1154 q 404 1156 411 1156 q 344 1139 367 1156 q 303 1099 322 1122 l 264 1122 z "},"Þ":{"ha":1128,"x_min":115,"x_max":1103,"o":"m 115 981 l 211 981 l 211 776 l 765 776 q 833 774 799 776 q 903 765 868 772 q 970 740 938 757 q 1032 693 1003 724 q 1085 609 1068 657 q 1103 508 1103 561 q 1066 368 1103 425 q 976 281 1029 311 q 856 241 918 247 q 743 235 793 235 l 211 235 l 211 0 l 115 0 l 115 981 m 211 694 l 211 315 l 710 315 q 816 319 761 315 q 915 350 871 324 q 983 422 965 379 q 1001 507 1001 464 q 999 547 1001 525 q 985 592 996 568 q 944 649 968 629 q 891 679 919 669 q 833 692 863 689 q 775 694 803 694 l 211 694 z "},"¼":{"ha":1504,"x_min":181,"x_max":1428,"o":"m 969 956 l 1043 956 l 489 0 l 414 0 l 969 956 m 181 839 q 251 844 222 839 q 301 864 281 850 q 334 901 321 878 q 358 957 347 924 l 403 957 l 403 358 l 338 358 l 338 818 q 308 801 322 808 q 276 790 293 794 q 236 785 258 786 q 181 783 214 783 l 181 839 m 1232 600 l 1300 600 l 1300 215 l 1428 215 l 1428 157 l 1300 157 l 1300 0 l 1235 0 l 1235 157 l 863 157 l 863 211 l 1232 600 m 1235 524 l 942 215 l 1235 215 l 1235 524 z "},"Â":{"ha":1100,"x_min":10,"x_max":1092,"o":"m 597 981 l 1092 0 l 990 0 l 864 254 l 232 254 l 107 0 l 10 0 l 492 981 l 597 981 m 544 893 l 269 332 l 825 332 l 544 893 m 500 1250 l 608 1250 l 758 1075 l 669 1075 l 551 1182 l 428 1075 l 340 1075 l 500 1250 z "},"Ö":{"ha":1274,"x_min":58,"x_max":1217,"o":"m 640 1011 q 894 964 786 1010 q 1074 845 1003 918 q 1181 680 1146 772 q 1217 493 1217 588 q 1176 292 1217 386 q 1058 126 1135 197 q 874 15 982 56 q 631 -26 765 -26 q 396 13 501 -26 q 215 121 290 51 q 99 285 140 190 q 58 492 58 381 q 99 694 58 600 q 216 860 140 789 q 399 971 292 931 q 640 1011 507 1011 m 610 926 q 407 881 492 921 q 267 778 322 840 q 187 640 213 717 q 161 488 161 564 q 198 306 161 386 q 299 171 235 226 q 451 86 364 115 q 639 57 538 57 q 822 86 736 57 q 972 172 908 115 q 1073 310 1036 228 q 1110 499 1110 392 q 1100 593 1110 544 q 1069 687 1090 642 q 1016 772 1049 732 q 938 843 983 813 q 890 869 921 854 q 817 899 860 885 q 723 921 775 913 q 610 926 671 929 m 911 1243 l 911 1108 l 811 1108 l 811 1243 l 911 1243 m 363 1243 l 463 1243 l 463 1108 l 363 1108 l 363 1243 z "},"¾":{"ha":1504,"x_min":65,"x_max":1426,"o":"m 1029 954 l 1103 954 l 550 0 l 475 0 l 1029 954 m 1231 600 l 1299 600 l 1299 215 l 1426 215 l 1426 157 l 1299 157 l 1299 0 l 1233 0 l 1233 157 l 861 157 l 861 211 l 1231 600 m 1233 524 l 942 215 l 1233 215 l 1233 524 m 82 790 q 104 842 90 813 q 146 899 118 872 q 220 943 174 925 q 342 961 267 961 q 415 955 378 961 q 483 933 451 949 q 531 901 513 919 q 559 865 549 883 q 573 828 569 846 q 576 797 576 810 q 551 724 576 753 q 485 679 525 696 q 512 670 499 675 q 540 654 525 665 q 585 606 568 635 q 603 540 603 576 q 586 466 603 501 q 536 404 569 431 q 453 363 503 378 q 336 347 403 347 q 211 367 261 347 q 131 415 161 388 q 86 469 101 442 q 65 511 71 496 l 125 532 q 144 495 132 517 q 180 453 156 474 q 242 419 204 433 q 340 406 281 406 q 481 441 428 406 q 535 539 535 476 q 524 582 535 565 q 504 607 514 599 q 444 635 479 631 q 379 642 410 640 l 269 642 l 269 699 l 351 699 q 408 701 379 699 q 464 719 438 704 q 494 745 476 726 q 511 797 511 764 q 494 849 511 828 q 453 882 478 869 q 399 900 428 894 q 343 906 369 906 q 283 900 319 906 q 215 876 247 894 q 165 828 178 856 q 144 769 151 800 l 82 790 z "},"Û":{"ha":1215,"x_min":110,"x_max":1103,"o":"m 110 982 l 200 982 l 200 397 q 225 240 197 303 q 306 137 253 176 q 435 81 358 97 q 607 64 511 64 q 797 85 719 64 q 923 148 875 106 q 992 256 971 190 q 1014 414 1014 322 l 1014 982 l 1103 982 l 1103 400 q 980 76 1103 176 q 607 -25 857 -25 q 232 75 354 -25 q 110 389 110 175 l 110 982 m 557 1250 l 665 1250 l 815 1075 l 726 1075 l 608 1182 l 485 1075 l 397 1075 l 557 1250 z "},"Ù":{"ha":1215,"x_min":110,"x_max":1103,"o":"m 110 982 l 200 982 l 200 397 q 225 240 197 303 q 306 137 253 176 q 435 81 358 97 q 607 64 511 64 q 797 85 719 64 q 923 148 875 106 q 992 256 971 190 q 1014 414 1014 322 l 1014 982 l 1103 982 l 1103 400 q 980 76 1103 176 q 607 -25 857 -25 q 232 75 354 -25 q 110 389 110 175 l 110 982 m 385 1250 l 539 1250 l 658 1075 l 592 1075 l 385 1250 z "},"Ü":{"ha":1215,"x_min":110,"x_max":1103,"o":"m 110 982 l 200 982 l 200 397 q 225 240 197 303 q 306 137 253 176 q 435 81 358 97 q 607 64 511 64 q 797 85 719 64 q 923 148 875 106 q 992 256 971 190 q 1014 414 1014 322 l 1014 982 l 1103 982 l 1103 400 q 980 76 1103 176 q 607 -25 857 -25 q 232 75 354 -25 q 110 389 110 175 l 110 982 m 883 1246 l 883 1111 l 783 1111 l 783 1246 l 883 1246 m 335 1246 l 435 1246 l 435 1111 l 335 1111 l 335 1246 z "},"Í":{"ha":318,"x_min":107,"x_max":379,"o":"m 114 981 l 207 981 l 207 0 l 114 0 l 114 981 m 225 1250 l 379 1250 l 169 1075 l 107 1075 l 225 1250 z "},"À":{"ha":1100,"x_min":10,"x_max":1092,"o":"m 597 981 l 1092 0 l 990 0 l 864 254 l 232 254 l 107 0 l 10 0 l 492 981 l 597 981 m 544 893 l 269 332 l 825 332 l 544 893 m 328 1250 l 482 1250 l 601 1075 l 535 1075 l 328 1250 z "},"°":{"ha":492,"x_min":42,"x_max":450,"o":"m 246 1039 q 326 1023 289 1039 q 390 979 363 1007 q 434 914 418 951 q 450 835 450 876 q 434 756 450 793 q 390 690 418 718 q 326 647 363 663 q 246 631 289 631 q 167 647 204 631 q 101 690 129 663 q 58 756 74 718 q 42 835 42 793 q 58 915 42 878 q 101 979 74 951 q 167 1023 129 1007 q 246 1039 204 1039 m 246 956 q 160 920 194 956 q 125 835 125 885 q 160 749 125 785 q 246 714 194 714 q 331 749 296 714 q 367 835 367 785 q 331 920 367 885 q 246 956 296 956 z "},"½":{"ha":1504,"x_min":181,"x_max":1426,"o":"m 940 956 l 1014 956 l 460 0 l 386 0 l 940 956 m 181 839 q 251 844 222 839 q 301 864 281 850 q 334 901 321 878 q 358 957 347 924 l 403 957 l 403 358 l 338 358 l 338 818 q 308 801 322 808 q 276 790 293 794 q 236 785 258 786 q 181 783 214 783 l 181 839 m 910 383 q 933 474 917 426 q 1003 561 950 522 q 1076 595 1033 582 q 1171 608 1118 608 q 1270 594 1225 608 q 1349 552 1315 579 q 1401 488 1382 525 q 1419 406 1419 451 q 1387 294 1419 343 q 1300 205 1354 246 q 1174 128 1246 164 q 1024 57 1103 93 l 1426 57 l 1426 0 l 913 0 l 913 64 q 1007 108 954 83 q 1110 158 1060 132 q 1206 213 1161 185 q 1279 265 1251 240 q 1328 325 1304 289 q 1351 404 1351 361 q 1340 458 1351 432 q 1308 505 1329 485 q 1252 538 1286 525 q 1172 550 1218 550 q 1071 530 1119 550 q 999 467 1022 510 q 985 433 992 456 q 976 374 978 410 l 910 383 z "},"−":{"ha":926,"x_min":0,"x_max":926,"o":"m 926 364 l 0 364 l 0 446 l 926 446 l 926 364 z "},"Ý":{"ha":1013,"x_min":8,"x_max":1004,"o":"m 894 981 l 1004 981 l 560 397 l 560 0 l 471 0 l 471 397 l 8 981 l 125 981 l 515 476 l 894 981 m 572 1250 l 726 1250 l 517 1075 l 454 1075 l 572 1250 z "},"²":{"ha":665,"x_min":71,"x_max":588,"o":"m 71 742 q 94 833 78 785 q 164 919 111 881 q 237 953 194 940 q 332 967 279 967 q 431 952 386 967 q 510 910 476 938 q 562 847 543 883 q 581 764 581 810 q 548 653 581 701 q 461 563 515 604 q 335 487 407 522 q 185 415 264 451 l 588 415 l 588 358 l 74 358 l 74 422 q 168 466 115 442 q 272 517 221 490 q 367 571 322 543 q 440 624 413 599 q 489 683 465 647 q 513 763 513 719 q 501 817 513 790 q 469 863 490 843 q 413 896 447 883 q 333 908 379 908 q 232 888 281 908 q 160 825 183 868 q 146 791 153 814 q 138 732 139 768 l 71 742 z "},"Ú":{"ha":1215,"x_min":110,"x_max":1103,"o":"m 110 982 l 200 982 l 200 397 q 225 240 197 303 q 306 137 253 176 q 435 81 358 97 q 607 64 511 64 q 797 85 719 64 q 923 148 875 106 q 992 256 971 190 q 1014 414 1014 322 l 1014 982 l 1103 982 l 1103 400 q 980 76 1103 176 q 607 -25 857 -25 q 232 75 354 -25 q 110 389 110 175 l 110 982 m 672 1250 l 826 1250 l 617 1075 l 554 1075 l 672 1250 z "},"®":{"ha":1157,"x_min":83,"x_max":1074,"o":"m 569 801 q 655 799 624 801 q 714 786 686 797 q 785 730 761 768 q 808 647 808 692 q 768 544 808 582 q 669 499 728 507 q 740 450 719 481 q 769 363 760 419 q 778 304 775 329 q 787 260 782 279 q 798 222 792 240 q 815 183 804 204 l 711 183 q 695 225 700 204 q 686 268 690 246 q 683 288 685 274 q 678 317 681 301 q 674 347 676 332 q 671 367 672 361 q 647 427 663 406 q 608 458 632 449 q 549 469 583 468 q 469 471 515 471 l 469 183 l 379 183 l 379 801 l 569 801 m 471 543 l 575 543 q 613 544 589 543 q 660 555 638 546 q 700 583 683 564 q 717 640 717 603 q 688 708 717 683 q 640 729 668 726 q 556 732 611 732 l 471 732 l 471 543 m 1074 488 q 1035 295 1074 385 q 929 139 996 206 q 772 34 863 72 q 576 -4 682 -4 q 391 32 481 -4 q 233 133 301 68 q 124 290 165 199 q 83 490 83 381 q 123 688 83 597 q 231 844 163 778 q 388 947 299 910 q 578 985 478 985 q 776 945 685 985 q 933 838 867 906 q 1037 679 1000 769 q 1074 488 1074 589 m 1029 489 q 996 664 1029 582 q 902 807 963 746 q 759 904 842 868 q 579 940 676 940 q 401 905 483 940 q 258 808 319 869 q 163 665 197 747 q 128 490 128 583 q 163 313 128 396 q 260 170 199 231 q 403 75 321 110 q 578 40 485 40 q 756 75 674 40 q 898 171 838 110 q 994 313 958 232 q 1029 489 1029 394 z "},"©":{"ha":1157,"x_min":85,"x_max":1074,"o":"m 1074 488 q 1035 295 1074 385 q 931 139 997 206 q 774 34 864 72 q 578 -4 683 -4 q 392 32 482 -4 q 235 133 303 68 q 126 290 167 199 q 85 490 85 381 q 124 687 85 596 q 231 844 164 778 q 388 947 299 910 q 578 985 478 985 q 777 945 686 985 q 934 838 868 906 q 1037 679 1000 769 q 1074 488 1074 589 m 1029 488 q 996 663 1029 581 q 902 806 963 744 q 760 904 842 868 q 581 940 678 940 q 403 905 485 940 q 260 808 321 869 q 164 665 199 747 q 129 490 129 583 q 165 313 129 396 q 261 170 200 231 q 404 75 322 110 q 579 40 486 40 q 757 76 675 40 q 899 172 839 111 q 994 313 960 232 q 1029 488 1029 394 m 847 301 q 783 236 817 261 q 715 197 749 211 q 648 176 681 182 q 588 171 615 171 q 464 194 522 171 q 362 260 406 218 q 293 360 318 301 q 268 490 268 419 q 292 619 268 560 q 360 722 317 678 q 462 790 403 765 q 589 814 521 814 q 733 781 671 814 q 847 686 794 749 l 789 632 q 761 663 778 644 q 720 697 744 681 q 663 724 696 713 q 589 736 631 736 q 497 718 540 736 q 421 668 454 700 q 368 591 388 636 q 349 492 349 546 q 368 394 349 439 q 421 317 388 349 q 498 267 454 285 q 590 249 542 249 q 665 260 632 249 q 723 289 699 272 q 763 323 747 306 q 789 351 779 340 l 847 301 z "},"Ê":{"ha":1157,"x_min":115,"x_max":1094,"o":"m 115 981 l 1054 981 l 1054 899 l 211 899 l 211 556 l 990 556 l 990 474 l 211 474 l 211 82 l 1094 82 l 1094 0 l 115 0 l 115 981 m 529 1250 l 638 1250 l 788 1075 l 699 1075 l 581 1182 l 457 1075 l 369 1075 l 529 1250 z "},"™":{"ha":954,"x_min":32,"x_max":860,"o":"m 860 521 l 796 521 l 796 822 q 797 841 796 828 q 798 869 797 854 q 799 897 799 883 q 799 917 799 911 q 793 897 796 906 q 788 881 790 889 q 783 862 786 872 q 775 836 779 851 l 675 521 l 617 521 l 517 836 q 513 849 514 843 q 509 863 511 856 q 503 883 507 871 q 493 915 499 896 q 495 869 494 896 q 496 822 496 843 l 499 521 l 435 521 l 435 982 l 528 982 l 647 603 l 767 982 l 860 982 l 860 521 m 249 521 l 183 521 l 183 924 l 32 924 l 32 982 l 396 982 l 396 924 l 249 924 l 249 521 z "},"±":{"ha":926,"x_min":57,"x_max":869,"o":"m 506 171 l 424 171 l 424 526 l 57 526 l 57 608 l 424 608 l 424 964 l 506 964 l 506 608 l 869 608 l 869 526 l 506 526 l 506 171 m 869 0 l 57 0 l 57 82 l 869 82 l 869 0 z "},"Ð":{"ha":1186,"x_min":0,"x_max":1119,"o":"m 115 494 l 0 494 l 0 565 l 115 565 l 115 981 l 606 981 q 735 974 672 981 q 867 933 799 967 q 983 850 935 900 q 1061 741 1031 800 q 1106 617 1092 682 q 1119 488 1119 551 q 1064 240 1119 344 q 921 79 1008 136 q 824 33 875 50 q 723 10 772 17 q 631 1 674 3 q 560 0 588 0 l 115 0 l 115 494 m 213 565 l 697 565 l 697 494 l 213 494 l 213 82 l 525 82 q 623 83 572 82 q 723 94 674 85 q 818 123 772 104 q 904 178 864 142 q 995 320 971 239 q 1019 482 1019 401 q 1000 628 1019 554 q 933 763 981 701 q 849 840 894 813 q 758 881 803 868 q 674 897 714 894 q 607 899 633 899 l 213 899 l 213 565 z "},"Ä":{"ha":1100,"x_min":10,"x_max":1092,"o":"m 597 981 l 1092 0 l 990 0 l 864 254 l 232 254 l 107 0 l 10 0 l 492 981 l 597 981 m 544 893 l 269 332 l 825 332 l 544 893 m 818 1243 l 818 1108 l 718 1108 l 718 1243 l 818 1243 m 269 1243 l 369 1243 l 369 1108 l 269 1108 l 269 1243 z "},"Å":{"ha":1100,"x_min":10,"x_max":1092,"o":"m 597 981 l 1092 0 l 990 0 l 864 254 l 232 254 l 107 0 l 10 0 l 492 981 l 597 981 m 544 893 l 269 332 l 825 332 l 544 893 m 539 1268 q 613 1260 582 1269 q 663 1234 643 1250 q 692 1197 683 1218 q 701 1154 701 1175 q 660 1066 701 1101 q 546 1031 618 1031 q 432 1062 478 1031 q 386 1149 386 1093 q 398 1197 386 1175 q 431 1234 410 1218 q 479 1258 451 1250 q 539 1268 507 1267 m 540 1211 q 476 1190 494 1210 q 458 1149 458 1169 q 477 1109 458 1128 q 543 1090 496 1090 q 571 1093 556 1090 q 599 1103 586 1096 q 619 1121 611 1110 q 628 1149 628 1132 q 601 1198 628 1183 q 540 1211 575 1213 z "},"Ÿ":{"ha":1013,"x_min":8,"x_max":1004,"o":"m 894 981 l 1004 981 l 560 397 l 560 0 l 471 0 l 471 397 l 8 981 l 125 981 l 515 476 l 894 981 m 785 1250 l 785 1115 l 685 1115 l 685 1250 l 785 1250 m 236 1250 l 336 1250 l 336 1115 l 236 1115 l 236 1250 z "},"÷":{"ha":926,"x_min":0,"x_max":925,"o":"m 529 222 q 512 179 529 199 q 465 160 494 160 q 419 178 438 160 q 401 222 401 196 q 419 266 401 246 q 465 286 436 286 q 512 267 494 286 q 529 222 529 247 m 529 583 q 512 540 529 560 q 465 521 494 521 q 419 539 438 521 q 401 583 401 557 q 419 627 401 607 q 465 647 436 647 q 512 628 494 647 q 529 583 529 608 m 925 363 l 0 363 l 0 444 l 925 444 l 925 363 z "},"¹":{"ha":665,"x_min":181,"x_max":403,"o":"m 181 839 q 251 844 222 839 q 301 864 281 850 q 334 901 321 878 q 358 957 347 924 l 403 957 l 403 358 l 338 358 l 338 818 q 308 801 322 808 q 276 790 293 794 q 236 785 258 786 q 181 783 214 783 l 181 839 z "},"³":{"ha":665,"x_min":65,"x_max":603,"o":"m 82 790 q 104 842 90 813 q 146 899 118 872 q 220 943 174 925 q 342 961 267 961 q 415 955 378 961 q 483 933 451 949 q 531 901 513 919 q 559 865 549 883 q 573 828 569 846 q 576 797 576 810 q 551 724 576 753 q 485 679 525 696 q 512 670 499 675 q 540 654 525 665 q 585 606 568 635 q 603 540 603 576 q 586 466 603 501 q 536 404 569 431 q 453 363 503 378 q 336 347 403 347 q 211 367 261 347 q 131 415 161 388 q 86 469 101 442 q 65 511 71 496 l 125 532 q 144 495 132 517 q 180 453 156 474 q 242 419 204 433 q 340 406 281 406 q 481 441 428 406 q 535 539 535 476 q 524 582 535 565 q 504 607 514 599 q 444 635 479 631 q 379 642 410 640 l 269 642 l 269 699 l 351 699 q 408 701 379 699 q 464 719 438 704 q 494 745 476 726 q 511 797 511 764 q 494 849 511 828 q 453 882 478 869 q 399 900 428 894 q 343 906 369 906 q 283 900 319 906 q 215 876 247 894 q 166 828 179 856 q 144 769 153 800 l 82 790 z "},"È":{"ha":1157,"x_min":115,"x_max":1094,"o":"m 115 981 l 1054 981 l 1054 899 l 211 899 l 211 556 l 990 556 l 990 474 l 211 474 l 211 82 l 1094 82 l 1094 0 l 115 0 l 115 981 m 371 1250 l 525 1250 l 644 1075 l 578 1075 l 371 1250 z "},"Ï":{"ha":318,"x_min":-111,"x_max":438,"o":"m 114 981 l 207 981 l 207 0 l 114 0 l 114 981 m 438 1250 l 438 1115 l 338 1115 l 338 1250 l 438 1250 m -111 1250 l -11 1250 l -11 1115 l -111 1115 l -111 1250 z "},"Š":{"ha":1128,"x_min":44,"x_max":1061,"o":"m 147 285 q 178 224 160 256 q 226 165 196 193 q 301 113 256 136 q 413 76 346 90 q 494 65 453 68 q 575 61 535 61 q 732 77 661 61 q 853 123 803 93 q 932 194 904 153 q 960 286 960 236 q 937 364 960 333 q 872 414 914 394 q 767 444 829 433 q 625 467 704 456 q 533 478 579 472 q 443 490 488 483 q 332 509 381 500 q 243 538 283 518 q 153 612 185 565 q 121 722 121 658 q 148 829 121 778 q 231 920 175 881 q 372 983 286 960 q 572 1007 457 1007 q 830 963 714 1007 q 1033 814 946 918 l 944 765 q 909 807 933 781 q 841 859 885 833 q 730 903 797 885 q 565 922 663 922 q 424 908 488 922 q 315 867 360 893 q 245 806 269 842 q 221 726 221 769 q 234 673 221 694 q 268 637 247 651 q 313 613 289 622 q 361 600 338 604 q 399 594 372 597 q 458 585 425 590 q 526 575 490 581 q 597 565 563 569 q 657 557 631 561 q 697 551 683 553 q 820 529 764 540 q 917 500 876 518 q 1021 419 981 472 q 1061 292 1061 367 q 1049 215 1061 251 q 1018 150 1038 179 q 968 92 1000 122 q 885 35 936 61 q 759 -8 833 10 q 583 -25 685 -25 q 467 -20 518 -25 q 374 -7 415 -15 q 301 13 333 1 q 239 40 268 25 q 162 89 193 64 q 109 140 131 114 q 73 192 88 165 q 44 246 58 218 l 147 285 m 357 1250 l 447 1250 l 564 1143 l 688 1250 l 778 1250 l 618 1075 l 506 1075 l 357 1250 z "},"Î":{"ha":318,"x_min":-50,"x_max":368,"o":"m 114 981 l 207 981 l 207 0 l 114 0 l 114 981 m 110 1250 l 218 1250 l 368 1075 l 279 1075 l 161 1182 l 38 1075 l -50 1075 l 110 1250 z "},"#":{"ha":926,"x_min":57,"x_max":867,"o":"m 546 0 l 461 0 l 514 360 l 374 360 l 321 0 l 240 0 l 290 360 l 57 360 l 57 435 l 301 435 l 319 569 l 88 569 l 88 649 l 329 649 l 374 983 l 461 983 l 413 649 l 553 649 l 597 983 l 679 983 l 633 649 l 867 649 l 867 569 l 624 569 l 606 435 l 839 435 l 839 360 l 597 360 l 546 0 m 524 435 l 542 569 l 403 569 l 383 435 l 524 435 z "},"á":{"ha":926,"x_min":57,"x_max":926,"o":"m 926 1 q 885 -3 906 -1 q 843 -4 865 -4 q 761 21 785 -4 q 729 101 738 46 q 678 66 708 86 q 603 27 647 46 q 501 -4 560 8 q 364 -17 442 -17 q 224 -1 269 -17 q 164 22 179 14 q 87 97 117 50 q 57 206 57 143 q 81 306 57 263 q 140 374 106 349 q 236 415 178 400 q 370 438 294 431 q 537 447 446 444 q 728 450 628 449 q 723 511 728 481 q 692 567 718 542 q 608 607 665 592 q 444 622 550 622 q 312 612 363 622 q 231 583 261 601 q 186 538 201 564 q 161 482 171 513 l 65 486 q 78 528 69 506 q 101 575 86 551 q 167 642 129 617 q 250 682 206 668 q 343 701 294 696 q 440 706 392 706 q 510 703 474 706 q 585 695 547 701 q 658 679 622 689 q 721 653 693 669 q 772 608 754 633 q 799 555 790 582 q 810 503 808 528 q 813 465 813 479 l 813 172 q 817 124 813 144 q 833 92 821 104 q 867 74 844 79 q 926 71 889 68 l 926 1 m 729 372 q 572 371 651 372 q 424 363 493 369 q 299 344 354 357 q 214 308 244 331 q 169 259 182 286 q 156 204 156 232 q 181 129 156 157 q 242 88 207 101 q 315 69 278 74 q 375 65 351 65 q 474 74 426 65 q 563 98 522 83 q 635 133 604 113 q 685 174 665 153 q 724 260 717 211 q 729 372 731 308 m 519 972 l 671 972 l 471 771 l 411 771 l 519 972 z "},"â":{"ha":926,"x_min":57,"x_max":926,"o":"m 926 1 q 885 -3 906 -1 q 843 -4 865 -4 q 761 21 785 -4 q 729 101 738 46 q 678 66 708 86 q 603 27 647 46 q 501 -4 560 8 q 364 -17 442 -17 q 224 -1 269 -17 q 164 22 179 14 q 87 97 117 50 q 57 206 57 143 q 81 306 57 263 q 140 374 106 349 q 236 415 178 400 q 370 438 294 431 q 537 447 446 444 q 728 450 628 449 q 723 511 728 481 q 692 567 718 542 q 608 607 665 592 q 444 622 550 622 q 312 612 363 622 q 231 583 261 601 q 186 538 201 564 q 161 482 171 513 l 65 486 q 78 528 69 506 q 101 575 86 551 q 167 642 129 617 q 250 682 206 668 q 343 701 294 696 q 440 706 392 706 q 510 703 474 706 q 585 695 547 701 q 658 679 622 689 q 721 653 693 669 q 772 608 754 633 q 799 555 790 582 q 810 503 808 528 q 813 465 813 479 l 813 172 q 817 124 813 144 q 833 92 821 104 q 867 74 844 79 q 926 71 889 68 l 926 1 m 729 372 q 572 371 651 372 q 424 363 493 369 q 299 344 354 357 q 214 308 244 331 q 169 259 182 286 q 156 204 156 232 q 181 129 156 157 q 242 88 207 101 q 315 69 278 74 q 375 65 351 65 q 474 74 426 65 q 563 98 522 83 q 635 133 604 113 q 685 174 665 153 q 724 260 717 211 q 729 372 731 308 m 506 946 l 649 763 l 576 763 l 464 881 l 349 763 l 274 763 l 424 946 l 506 946 z "},"ä":{"ha":926,"x_min":57,"x_max":926,"o":"m 926 1 q 885 -3 906 -1 q 843 -4 865 -4 q 761 21 785 -4 q 729 101 738 46 q 678 66 708 86 q 603 27 647 46 q 501 -4 560 8 q 364 -17 442 -17 q 224 -1 269 -17 q 164 22 179 14 q 87 97 117 50 q 57 206 57 143 q 81 306 57 263 q 140 374 106 349 q 236 415 178 400 q 370 438 294 431 q 537 447 446 444 q 728 450 628 449 q 723 511 728 481 q 692 567 718 542 q 608 607 665 592 q 444 622 550 622 q 312 612 363 622 q 231 583 261 601 q 186 538 201 564 q 161 482 171 513 l 65 486 q 78 528 69 506 q 101 575 86 551 q 167 642 129 617 q 250 682 206 668 q 343 701 294 696 q 440 706 392 706 q 510 703 474 706 q 585 695 547 701 q 658 679 622 689 q 721 653 693 669 q 772 608 754 633 q 799 555 790 582 q 810 503 808 528 q 813 465 813 479 l 813 172 q 817 124 813 144 q 833 92 821 104 q 867 74 844 79 q 926 71 889 68 l 926 1 m 729 372 q 572 371 651 372 q 424 363 493 369 q 299 344 354 357 q 214 308 244 331 q 169 259 182 286 q 156 204 156 232 q 181 129 156 157 q 242 88 207 101 q 315 69 278 74 q 375 65 351 65 q 474 74 426 65 q 563 98 522 83 q 635 133 604 113 q 685 174 665 153 q 724 260 717 211 q 729 372 731 308 m 322 917 l 322 783 l 225 783 l 225 917 l 322 917 m 593 917 l 690 917 l 690 783 l 593 783 l 593 917 z "},"à":{"ha":926,"x_min":57,"x_max":926,"o":"m 926 1 q 885 -3 906 -1 q 843 -4 865 -4 q 761 21 785 -4 q 729 101 738 46 q 678 66 708 86 q 603 27 647 46 q 501 -4 560 8 q 364 -17 442 -17 q 224 -1 269 -17 q 164 22 179 14 q 87 97 117 50 q 57 206 57 143 q 81 306 57 263 q 140 374 106 349 q 236 415 178 400 q 370 438 294 431 q 537 447 446 444 q 728 450 628 449 q 723 511 728 481 q 692 567 718 542 q 608 607 665 592 q 444 622 550 622 q 312 612 363 622 q 231 583 261 601 q 186 538 201 564 q 161 482 171 513 l 65 486 q 78 528 69 506 q 101 575 86 551 q 167 642 129 617 q 250 682 206 668 q 343 701 294 696 q 440 706 392 706 q 510 703 474 706 q 585 695 547 701 q 658 679 622 689 q 721 653 693 669 q 772 608 754 633 q 799 555 790 582 q 810 503 808 528 q 813 465 813 479 l 813 172 q 817 124 813 144 q 833 92 821 104 q 867 74 844 79 q 926 71 889 68 l 926 1 m 729 372 q 572 371 651 372 q 424 363 493 369 q 299 344 354 357 q 214 308 244 331 q 169 259 182 286 q 156 204 156 232 q 181 129 156 157 q 242 88 207 101 q 315 69 278 74 q 375 65 351 65 q 474 74 426 65 q 563 98 522 83 q 635 133 604 113 q 685 174 665 153 q 724 260 717 211 q 729 372 731 308 m 410 971 l 514 769 l 454 769 l 257 971 l 410 971 z "},"å":{"ha":926,"x_min":57,"x_max":926,"o":"m 926 1 q 885 -3 906 -1 q 843 -4 865 -4 q 761 21 785 -4 q 729 101 738 46 q 678 66 708 86 q 603 27 647 46 q 501 -4 560 8 q 364 -17 442 -17 q 224 -1 269 -17 q 164 22 179 14 q 87 97 117 50 q 57 206 57 143 q 81 306 57 263 q 140 374 106 349 q 236 415 178 400 q 370 438 294 431 q 537 447 446 444 q 728 450 628 449 q 723 511 728 481 q 692 567 718 542 q 608 607 665 592 q 444 622 550 622 q 312 612 363 622 q 231 583 261 601 q 186 538 201 564 q 161 482 171 513 l 65 486 q 78 528 69 506 q 101 575 86 551 q 167 642 129 617 q 250 682 206 668 q 343 701 294 696 q 440 706 392 706 q 510 703 474 706 q 585 695 547 701 q 658 679 622 689 q 721 653 693 669 q 772 608 754 633 q 799 555 790 582 q 810 503 808 528 q 813 465 813 479 l 813 172 q 817 124 813 144 q 833 92 821 104 q 867 74 844 79 q 926 71 889 68 l 926 1 m 729 372 q 572 371 651 372 q 424 363 493 369 q 299 344 354 357 q 214 308 244 331 q 169 259 182 286 q 156 204 156 232 q 181 129 156 157 q 242 88 207 101 q 315 69 278 74 q 375 65 351 65 q 474 74 426 65 q 563 98 522 83 q 635 133 604 113 q 685 174 665 153 q 724 260 717 211 q 729 372 731 308 m 449 996 q 571 967 524 1000 q 618 878 618 935 q 605 826 618 849 q 569 789 592 804 q 519 765 547 774 q 460 757 490 757 q 404 764 432 757 q 353 785 376 771 q 316 822 331 800 q 301 875 301 844 q 314 926 301 904 q 347 963 326 949 q 394 986 368 978 q 449 996 421 994 m 457 939 q 397 921 421 938 q 374 878 374 904 q 377 860 374 869 q 390 840 381 850 q 415 824 399 831 q 458 818 432 818 q 525 837 506 818 q 544 878 544 856 q 523 920 544 900 q 457 939 501 940 z "},"ã":{"ha":926,"x_min":57,"x_max":926,"o":"m 926 1 q 885 -3 906 -1 q 843 -4 865 -4 q 761 21 785 -4 q 729 101 738 46 q 678 66 708 86 q 603 27 647 46 q 501 -4 560 8 q 364 -17 442 -17 q 224 -1 269 -17 q 164 22 179 14 q 87 97 117 50 q 57 206 57 143 q 81 306 57 263 q 140 374 106 349 q 236 415 178 400 q 370 438 294 431 q 537 447 446 444 q 728 450 628 449 q 723 511 728 481 q 692 567 718 542 q 608 607 665 592 q 444 622 550 622 q 312 612 363 622 q 231 583 261 601 q 186 538 201 564 q 161 482 171 513 l 65 486 q 78 528 69 506 q 101 575 86 551 q 167 642 129 617 q 250 682 206 668 q 343 701 294 696 q 440 706 392 706 q 510 703 474 706 q 585 695 547 701 q 658 679 622 689 q 721 653 693 669 q 772 608 754 633 q 799 555 790 582 q 810 503 808 528 q 813 465 813 479 l 813 172 q 817 124 813 144 q 833 92 821 104 q 867 74 844 79 q 926 71 889 68 l 926 1 m 729 372 q 572 371 651 372 q 424 363 493 369 q 299 344 354 357 q 214 308 244 331 q 169 259 182 286 q 156 204 156 232 q 181 129 156 157 q 242 88 207 101 q 315 69 278 74 q 375 65 351 65 q 474 74 426 65 q 563 98 522 83 q 635 133 604 113 q 685 174 665 153 q 724 260 717 211 q 729 372 731 308 m 176 854 q 207 889 190 871 q 245 922 224 907 q 294 947 267 938 q 354 957 321 957 q 385 955 369 957 q 422 948 400 953 q 473 935 443 943 q 549 914 503 926 q 582 906 564 910 q 617 901 600 901 q 651 908 636 901 q 678 922 667 914 q 697 940 689 931 q 710 958 704 950 l 753 942 q 731 910 744 929 q 697 873 718 892 q 647 841 676 854 q 579 828 618 828 q 533 832 556 828 q 488 843 511 836 q 417 865 451 854 q 346 883 382 876 q 332 885 339 885 q 318 886 325 886 q 253 867 276 886 q 215 829 231 847 l 176 854 z "},"é":{"ha":926,"x_min":65,"x_max":871,"o":"m 871 189 q 817 122 851 161 q 725 47 783 82 q 601 -2 667 13 q 478 -17 535 -17 q 313 12 389 -17 q 183 90 238 40 q 97 209 128 140 q 65 360 65 278 q 93 499 65 439 q 158 597 121 558 q 283 676 206 644 q 456 708 361 708 q 521 704 483 708 q 599 687 558 700 q 683 651 640 674 q 763 590 725 628 q 818 520 797 556 q 850 451 839 485 q 865 388 861 418 q 871 335 868 358 l 161 335 q 194 215 165 267 q 268 130 224 164 q 369 79 313 96 q 486 63 426 63 q 522 64 504 63 q 554 68 539 65 q 626 88 594 75 q 681 116 657 101 q 720 144 704 131 q 746 169 736 158 q 777 208 767 192 q 797 240 788 224 l 871 189 m 760 411 q 749 449 756 428 q 729 491 742 469 q 696 535 717 513 q 644 578 675 557 q 568 615 614 597 q 451 632 522 632 q 398 628 426 632 q 340 615 369 625 q 282 587 311 606 q 226 539 253 568 q 178 463 190 499 q 164 411 167 428 l 760 411 m 519 972 l 671 972 l 471 771 l 411 771 l 519 972 z "},"ê":{"ha":926,"x_min":65,"x_max":871,"o":"m 871 189 q 817 122 851 161 q 725 47 783 82 q 601 -2 667 13 q 478 -17 535 -17 q 313 12 389 -17 q 183 90 238 40 q 97 209 128 140 q 65 360 65 278 q 93 499 65 439 q 158 597 121 558 q 283 676 206 644 q 456 708 361 708 q 521 704 483 708 q 599 687 558 700 q 683 651 640 674 q 763 590 725 628 q 818 520 797 556 q 850 451 839 485 q 865 388 861 418 q 871 335 868 358 l 161 335 q 194 215 165 267 q 268 130 224 164 q 369 79 313 96 q 486 63 426 63 q 522 64 504 63 q 554 68 539 65 q 626 88 594 75 q 681 116 657 101 q 720 144 704 131 q 746 169 736 158 q 777 208 767 192 q 797 240 788 224 l 871 189 m 760 411 q 749 449 756 428 q 729 491 742 469 q 696 535 717 513 q 644 578 675 557 q 568 615 614 597 q 451 632 522 632 q 398 628 426 632 q 340 615 369 625 q 282 587 311 606 q 226 539 253 568 q 178 463 190 499 q 164 411 167 428 l 760 411 m 506 946 l 649 763 l 576 763 l 464 881 l 349 763 l 274 763 l 424 946 l 506 946 z "},"ë":{"ha":926,"x_min":65,"x_max":871,"o":"m 871 189 q 817 122 851 161 q 725 47 783 82 q 601 -2 667 13 q 478 -17 535 -17 q 313 12 389 -17 q 183 90 238 40 q 97 209 128 140 q 65 360 65 278 q 93 499 65 439 q 158 597 121 558 q 283 676 206 644 q 456 708 361 708 q 521 704 483 708 q 599 687 558 700 q 683 651 640 674 q 763 590 725 628 q 818 520 797 556 q 850 451 839 485 q 865 388 861 418 q 871 335 868 358 l 161 335 q 194 215 165 267 q 268 130 224 164 q 369 79 313 96 q 486 63 426 63 q 522 64 504 63 q 554 68 539 65 q 626 88 594 75 q 681 116 657 101 q 720 144 704 131 q 746 169 736 158 q 777 208 767 192 q 797 240 788 224 l 871 189 m 760 411 q 749 449 756 428 q 729 491 742 469 q 696 535 717 513 q 644 578 675 557 q 568 615 614 597 q 451 632 522 632 q 398 628 426 632 q 340 615 369 625 q 282 587 311 606 q 226 539 253 568 q 178 463 190 499 q 164 411 167 428 l 760 411 m 329 924 l 329 790 l 232 790 l 232 924 l 329 924 m 600 924 l 697 924 l 697 790 l 600 790 l 600 924 z "},"è":{"ha":926,"x_min":65,"x_max":871,"o":"m 871 189 q 817 122 851 161 q 725 47 783 82 q 601 -2 667 13 q 478 -17 535 -17 q 313 12 389 -17 q 183 90 238 40 q 97 209 128 140 q 65 360 65 278 q 93 499 65 439 q 158 597 121 558 q 283 676 206 644 q 456 708 361 708 q 521 704 483 708 q 599 687 558 700 q 683 651 640 674 q 763 590 725 628 q 818 520 797 556 q 850 451 839 485 q 865 388 861 418 q 871 335 868 358 l 161 335 q 194 215 165 267 q 268 130 224 164 q 369 79 313 96 q 486 63 426 63 q 522 64 504 63 q 554 68 539 65 q 626 88 594 75 q 681 116 657 101 q 720 144 704 131 q 746 169 736 158 q 777 208 767 192 q 797 240 788 224 l 871 189 m 760 411 q 749 449 756 428 q 729 491 742 469 q 696 535 717 513 q 644 578 675 557 q 568 615 614 597 q 451 632 522 632 q 398 628 426 632 q 340 615 369 625 q 282 587 311 606 q 226 539 253 568 q 178 463 190 499 q 164 411 167 428 l 760 411 m 410 971 l 514 769 l 454 769 l 257 971 l 410 971 z "},"í":{"ha":289,"x_min":94,"x_max":354,"o":"m 99 686 l 190 686 l 190 0 l 99 0 l 99 686 m 203 972 l 354 972 l 154 771 l 94 771 l 203 972 z "},"î":{"ha":289,"x_min":-43,"x_max":332,"o":"m 99 686 l 190 686 l 190 0 l 99 0 l 99 686 m 189 946 l 332 763 l 260 763 l 147 881 l 32 763 l -43 763 l 107 946 l 189 946 z "},"ï":{"ha":289,"x_min":-85,"x_max":381,"o":"m 99 686 l 190 686 l 190 0 l 99 0 l 99 686 m 13 924 l 13 790 l -85 790 l -85 924 l 13 924 m 283 924 l 381 924 l 381 790 l 283 790 l 283 924 z "},"ì":{"ha":289,"x_min":-60,"x_max":197,"o":"m 99 686 l 190 686 l 190 0 l 99 0 l 99 686 m 93 971 l 197 769 l 138 769 l -60 971 l 93 971 z "},"ñ":{"ha":983,"x_min":99,"x_max":886,"o":"m 886 0 l 794 0 l 794 374 q 789 451 794 408 q 755 531 783 494 q 667 593 726 568 q 501 618 608 618 q 360 599 431 618 q 240 529 289 579 q 200 464 208 496 q 192 385 192 432 l 192 0 l 99 0 l 99 686 l 192 686 l 192 590 q 228 624 206 604 q 289 661 251 643 q 381 692 326 679 q 513 706 435 706 q 647 691 583 706 q 754 651 710 676 q 828 591 801 625 q 868 520 856 557 q 883 447 881 483 q 886 379 886 411 l 886 0 m 207 854 q 238 889 221 871 q 276 922 254 907 q 324 947 297 938 q 385 957 351 957 q 415 955 400 957 q 452 948 431 953 q 503 935 474 943 q 579 914 533 926 q 613 906 594 910 q 647 901 631 901 q 682 908 667 901 q 708 922 697 914 q 727 940 719 931 q 740 958 735 950 l 783 942 q 762 910 775 929 q 728 873 749 892 q 678 841 707 854 q 610 828 649 828 q 564 832 586 828 q 518 843 542 836 q 447 865 482 854 q 376 883 413 876 q 363 885 369 885 q 349 886 356 886 q 284 867 307 886 q 246 829 261 847 l 207 854 z "},"ó":{"ha":983,"x_min":60,"x_max":922,"o":"m 508 708 q 695 674 617 707 q 824 588 774 640 q 899 469 875 535 q 922 338 922 403 q 890 194 922 260 q 801 82 858 129 q 665 8 744 35 q 489 -19 585 -19 q 303 10 383 -19 q 169 90 224 40 q 88 206 115 140 q 60 342 60 271 q 91 490 60 422 q 181 607 122 558 q 322 683 239 656 q 508 708 406 710 m 485 633 q 360 612 418 632 q 258 555 301 592 q 189 464 214 518 q 164 342 164 410 q 190 218 164 271 q 259 130 215 165 q 362 76 303 94 q 488 58 421 58 q 622 78 561 58 q 727 135 683 99 q 795 225 771 172 q 819 343 819 278 q 792 470 819 415 q 717 562 764 525 q 610 617 671 599 q 485 633 550 635 m 550 972 l 701 972 l 501 771 l 442 771 l 550 972 z "},"ô":{"ha":983,"x_min":60,"x_max":922,"o":"m 508 708 q 695 674 617 707 q 824 588 774 640 q 899 469 875 535 q 922 338 922 403 q 890 194 922 260 q 801 82 858 129 q 665 8 744 35 q 489 -19 585 -19 q 303 10 383 -19 q 169 90 224 40 q 88 206 115 140 q 60 342 60 271 q 91 490 60 422 q 181 607 122 558 q 322 683 239 656 q 508 708 406 710 m 485 633 q 360 612 418 632 q 258 555 301 592 q 189 464 214 518 q 164 342 164 410 q 190 218 164 271 q 259 130 215 165 q 362 76 303 94 q 488 58 421 58 q 622 78 561 58 q 727 135 683 99 q 795 225 771 172 q 819 343 819 278 q 792 470 819 415 q 717 562 764 525 q 610 617 671 599 q 485 633 550 635 m 536 946 l 679 763 l 607 763 l 494 881 l 379 763 l 304 763 l 454 946 l 536 946 z "},"ö":{"ha":983,"x_min":60,"x_max":922,"o":"m 508 708 q 695 674 617 707 q 824 588 774 640 q 899 469 875 535 q 922 338 922 403 q 890 194 922 260 q 801 82 858 129 q 665 8 744 35 q 489 -19 585 -19 q 303 10 383 -19 q 169 90 224 40 q 88 206 115 140 q 60 342 60 271 q 91 490 60 422 q 181 607 122 558 q 322 683 239 656 q 508 708 406 710 m 485 633 q 360 612 418 632 q 258 555 301 592 q 189 464 214 518 q 164 342 164 410 q 190 218 164 271 q 259 130 215 165 q 362 76 303 94 q 488 58 421 58 q 622 78 561 58 q 727 135 683 99 q 795 225 771 172 q 819 343 819 278 q 792 470 819 415 q 717 562 764 525 q 610 617 671 599 q 485 633 550 635 m 354 917 l 354 783 l 257 783 l 257 917 l 354 917 m 625 917 l 722 917 l 722 783 l 625 783 l 625 917 z "},"ò":{"ha":983,"x_min":60,"x_max":922,"o":"m 508 708 q 695 674 617 707 q 824 588 774 640 q 899 469 875 535 q 922 338 922 403 q 890 194 922 260 q 801 82 858 129 q 665 8 744 35 q 489 -19 585 -19 q 303 10 383 -19 q 169 90 224 40 q 88 206 115 140 q 60 342 60 271 q 91 490 60 422 q 181 607 122 558 q 322 683 239 656 q 508 708 406 710 m 485 633 q 360 612 418 632 q 258 555 301 592 q 189 464 214 518 q 164 342 164 410 q 190 218 164 271 q 259 130 215 165 q 362 76 303 94 q 488 58 421 58 q 622 78 561 58 q 727 135 683 99 q 795 225 771 172 q 819 343 819 278 q 792 470 819 415 q 717 562 764 525 q 610 617 671 599 q 485 633 550 635 m 440 971 l 544 769 l 485 769 l 288 971 l 440 971 z "},"õ":{"ha":983,"x_min":60,"x_max":922,"o":"m 508 708 q 695 674 617 707 q 824 588 774 640 q 899 469 875 535 q 922 338 922 403 q 890 194 922 260 q 801 82 858 129 q 665 8 744 35 q 489 -19 585 -19 q 303 10 383 -19 q 169 90 224 40 q 88 206 115 140 q 60 342 60 271 q 91 490 60 422 q 181 607 122 558 q 322 683 239 656 q 508 708 406 710 m 485 633 q 360 612 418 632 q 258 555 301 592 q 189 464 214 518 q 164 342 164 410 q 190 218 164 271 q 259 130 215 165 q 362 76 303 94 q 488 58 421 58 q 622 78 561 58 q 727 135 683 99 q 795 225 771 172 q 819 343 819 278 q 792 470 819 415 q 717 562 764 525 q 610 617 671 599 q 485 633 550 635 m 207 854 q 238 889 221 871 q 276 922 254 907 q 324 947 297 938 q 385 957 351 957 q 415 955 400 957 q 452 948 431 953 q 503 935 474 943 q 579 914 533 926 q 613 906 594 910 q 647 901 631 901 q 682 908 667 901 q 708 922 697 914 q 727 940 719 931 q 740 958 735 950 l 783 942 q 762 910 775 929 q 728 873 749 892 q 678 841 707 854 q 610 828 649 828 q 564 832 586 828 q 518 843 542 836 q 447 865 482 854 q 376 883 413 876 q 363 885 369 885 q 349 886 356 886 q 284 867 307 886 q 246 829 261 847 l 207 854 z "},"š":{"ha":868,"x_min":42,"x_max":817,"o":"m 140 192 q 167 150 150 174 q 228 106 183 126 q 333 74 271 83 q 449 65 396 65 q 597 83 528 65 q 699 139 667 101 q 717 168 710 151 q 724 203 724 185 q 719 231 724 214 q 697 263 714 247 q 642 289 676 282 q 544 300 607 296 q 466 305 504 303 q 388 310 428 307 q 269 316 319 313 q 181 335 219 319 q 142 356 161 343 q 107 387 122 368 q 81 431 92 406 q 71 490 71 457 q 76 534 71 510 q 93 582 81 558 q 126 624 107 607 q 163 653 144 642 q 198 671 182 664 q 225 681 214 678 q 329 701 275 696 q 422 706 383 706 q 492 703 456 706 q 565 695 529 701 q 635 679 601 689 q 697 656 669 669 q 768 597 746 628 q 801 544 790 565 l 700 524 q 685 549 694 535 q 654 576 676 563 q 599 601 631 592 q 535 616 568 611 q 472 623 503 621 q 418 625 440 625 q 376 624 401 625 q 323 618 351 622 q 267 606 294 614 q 218 583 239 597 q 188 558 199 571 q 173 533 178 544 q 167 512 168 521 q 167 500 167 503 q 188 444 167 468 q 240 417 207 424 q 340 407 272 411 q 443 402 392 404 q 546 396 494 400 q 642 383 608 390 q 696 369 675 376 q 789 299 761 346 q 817 206 817 253 q 810 156 817 179 q 792 113 803 132 q 766 78 781 93 q 733 50 751 63 q 608 -2 681 13 q 456 -17 536 -17 q 329 -10 394 -17 q 206 17 264 -3 q 104 73 149 36 q 42 168 60 110 l 140 192 m 393 763 l 250 946 l 324 946 l 436 828 l 551 946 l 626 946 l 478 763 l 393 763 z "},"ú":{"ha":983,"x_min":97,"x_max":885,"o":"m 794 688 l 885 688 l 885 0 l 794 0 l 794 100 q 753 66 779 86 q 687 27 728 46 q 589 -5 646 8 q 456 -18 532 -18 q 383 -14 433 -18 q 272 10 332 -10 q 161 80 197 35 q 112 173 125 125 q 99 262 99 221 q 97 318 99 303 l 97 688 l 189 688 l 189 311 q 190 272 189 293 q 194 227 190 250 q 208 182 199 204 q 233 140 217 160 q 308 90 256 114 q 457 67 361 67 q 522 70 486 67 q 594 82 557 74 q 665 104 631 90 q 728 139 700 118 q 765 174 753 157 q 784 207 778 190 q 792 241 790 224 q 794 278 793 258 l 794 688 m 550 972 l 701 972 l 501 771 l 442 771 l 550 972 z "},"û":{"ha":983,"x_min":97,"x_max":885,"o":"m 794 688 l 885 688 l 885 0 l 794 0 l 794 100 q 753 66 779 86 q 687 27 728 46 q 589 -5 646 8 q 456 -18 532 -18 q 383 -14 433 -18 q 272 10 332 -10 q 161 80 197 35 q 112 173 125 125 q 99 262 99 221 q 97 318 99 303 l 97 688 l 189 688 l 189 311 q 190 272 189 293 q 194 227 190 250 q 208 182 199 204 q 233 140 217 160 q 308 90 256 114 q 457 67 361 67 q 522 70 486 67 q 594 82 557 74 q 665 104 631 90 q 728 139 700 118 q 765 174 753 157 q 784 207 778 190 q 792 241 790 224 q 794 278 793 258 l 794 688 m 536 946 l 679 763 l 607 763 l 494 881 l 379 763 l 304 763 l 454 946 l 536 946 z "},"ü":{"ha":983,"x_min":97,"x_max":885,"o":"m 794 688 l 885 688 l 885 0 l 794 0 l 794 100 q 753 66 779 86 q 687 27 728 46 q 589 -5 646 8 q 456 -18 532 -18 q 383 -14 433 -18 q 272 10 332 -10 q 161 80 197 35 q 112 173 125 125 q 99 262 99 221 q 97 318 99 303 l 97 688 l 189 688 l 189 311 q 190 272 189 293 q 194 227 190 250 q 208 182 199 204 q 233 140 217 160 q 308 90 256 114 q 457 67 361 67 q 522 70 486 67 q 594 82 557 74 q 665 104 631 90 q 728 139 700 118 q 765 174 753 157 q 784 207 778 190 q 792 241 790 224 q 794 278 793 258 l 794 688 m 356 917 l 356 783 l 258 783 l 258 917 l 356 917 m 626 917 l 724 917 l 724 783 l 626 783 l 626 917 z "},"ù":{"ha":983,"x_min":97,"x_max":885,"o":"m 794 688 l 885 688 l 885 0 l 794 0 l 794 100 q 753 66 779 86 q 687 27 728 46 q 589 -5 646 8 q 456 -18 532 -18 q 383 -14 433 -18 q 272 10 332 -10 q 161 80 197 35 q 112 173 125 125 q 99 262 99 221 q 97 318 99 303 l 97 688 l 189 688 l 189 311 q 190 272 189 293 q 194 227 190 250 q 208 182 199 204 q 233 140 217 160 q 308 90 256 114 q 457 67 361 67 q 522 70 486 67 q 594 82 557 74 q 665 104 631 90 q 728 139 700 118 q 765 174 753 157 q 784 207 778 190 q 792 241 790 224 q 794 278 793 258 l 794 688 m 440 971 l 544 769 l 485 769 l 288 971 l 440 971 z "},"ý":{"ha":781,"x_min":0,"x_max":778,"o":"m 679 688 l 778 688 l 454 -51 q 410 -147 431 -106 q 359 -215 390 -187 q 281 -256 328 -242 q 157 -269 233 -269 q 82 -265 113 -269 q 15 -253 51 -260 l 15 -167 q 47 -177 32 -172 q 76 -185 61 -182 q 110 -190 92 -187 q 153 -192 129 -192 q 247 -178 210 -192 q 306 -144 283 -165 q 343 -94 329 -122 q 368 -37 357 -67 l 0 688 l 111 688 l 417 64 l 679 688 m 449 972 l 600 972 l 400 771 l 340 771 l 449 972 z "},"ÿ":{"ha":781,"x_min":0,"x_max":778,"o":"m 679 688 l 778 688 l 454 -51 q 410 -147 431 -106 q 359 -215 390 -187 q 281 -256 328 -242 q 157 -269 233 -269 q 82 -265 113 -269 q 15 -253 51 -260 l 15 -167 q 47 -177 32 -172 q 76 -185 61 -182 q 110 -190 92 -187 q 153 -192 129 -192 q 247 -178 210 -192 q 306 -144 283 -165 q 343 -94 329 -122 q 368 -37 357 -67 l 0 688 l 111 688 l 417 64 l 679 688 m 258 924 l 258 790 l 161 790 l 161 924 l 258 924 m 529 924 l 626 924 l 626 790 l 529 790 l 529 924 z "},"ž":{"ha":781,"x_min":15,"x_max":758,"o":"m 758 0 l 15 0 l 15 74 l 626 610 l 60 610 l 60 686 l 758 686 l 758 621 l 143 76 l 758 76 l 758 0 m 367 763 l 224 946 l 297 946 l 410 828 l 525 946 l 600 946 l 451 763 l 367 763 z "},"!":{"ha":435,"x_min":190,"x_max":297,"o":"m 211 278 l 194 588 l 194 981 l 293 981 l 293 558 l 275 278 l 211 278 m 297 0 l 190 0 l 190 138 l 297 138 l 297 0 z "},"\"":{"ha":550,"x_min":83,"x_max":468,"o":"m 417 618 l 390 618 l 346 954 q 344 967 344 963 q 344 978 344 972 q 365 1026 344 1011 q 408 1040 385 1040 q 421 1039 411 1040 q 441 1031 431 1038 q 460 1011 451 1025 q 467 972 468 997 l 417 618 m 157 618 l 131 618 l 85 954 q 83 967 83 963 q 83 978 83 972 q 104 1026 83 1011 q 147 1040 125 1040 q 160 1039 150 1040 q 181 1031 171 1038 q 199 1011 192 1025 q 206 972 207 997 l 157 618 z "}}}
